<?xml version="1.0" encoding="UTF-8"?>
<svg id="Layer_2" xmlns="http://www.w3.org/2000/svg" viewBox="0 0 833.98 966.29">
  <defs>
    <style>
      .cls-1 {
        fill: #015f7f;
      }

      .cls-2 {
        fill: #074966;
      }

      .cls-3 {
        fill: #f4f3f4;
      }

      .cls-4 {
        fill: #f8fafb;
      }

      .cls-5 {
        fill: #f1f5f8;
      }

      .cls-6 {
        fill: #fcfcfc;
      }

      .cls-7 {
        fill: #d7d7d7;
      }

      .cls-8 {
        fill: #22a1db;
      }

      .cls-9 {
        fill: #027ffb;
      }

      .cls-10 {
        fill: #023f60;
      }

      .cls-11 {
        fill: #014061;
      }

      .cls-12 {
        fill: #064865;
      }

      .cls-13 {
        fill: #eff7fa;
      }

      .cls-14 {
        fill: #0e1b53;
      }

      .cls-15 {
        fill: #027ffc;
      }

      .cls-16 {
        fill: #f9fbfc;
      }

      .cls-17 {
        fill: #f1f4f7;
      }

      .cls-18 {
        fill: #134a55;
      }

      .cls-19 {
        fill: #ebeaeb;
      }

      .cls-20 {
        fill: #fbfbfb;
      }

      .cls-21 {
        fill: #f2f8fa;
      }

      .cls-22 {
        fill: #084867;
      }

      .cls-23 {
        fill: #fbfdfd;
      }

      .cls-24 {
        fill: #f9fafb;
      }

      .cls-25 {
        fill: #0e4a5b;
      }

      .cls-26 {
        fill: #101c54;
      }

      .cls-27 {
        fill: #114954;
      }

      .cls-28 {
        fill: #fafcfd;
      }

      .cls-29 {
        fill: #027ffa;
      }

      .cls-30 {
        fill: #d0d0d0;
      }

      .cls-31 {
        fill: #e9f7fa;
      }

      .cls-32 {
        fill: #8e9aa6;
      }

      .cls-33 {
        fill: #1da0da;
      }

      .cls-34 {
        fill: #d3d2d2;
      }

      .cls-35 {
        fill: #e8f2f5;
      }

      .cls-36 {
        fill: #f0f9fc;
      }

      .cls-37 {
        fill: #fafafa;
      }

      .cls-38 {
        fill: #f8fafc;
      }

      .cls-39 {
        fill: #0d0f11;
      }

      .cls-40 {
        fill: #f8f8f8;
      }

      .cls-41 {
        fill: #f7f7f7;
      }

      .cls-42 {
        fill: #02203f;
      }

      .cls-43 {
        fill: #eaf3f6;
      }

      .cls-44 {
        fill: #495563;
      }

      .cls-45 {
        fill: #204f6a;
      }

      .cls-46 {
        fill: #f5fbfc;
      }

      .cls-47 {
        fill: #054161;
      }
    </style>
  </defs>
  <g id="Layer_1-2" data-name="Layer_1">
    <g>
      <path class="cls-42" d="M90.94,576.21c-28.24,0-56.49-.03-84.73,0-3.07,0-5.86.1-5.22-5.15-.01-49.2-.02-97.49-.02-145.79,1.83-2.33,3.22-5.35,5.57-6.88,17.85-11.58,35.87-22.87,53.86-34.23,3.63-2.29,7.31-4.48,11.64-6.69,1.43,1.67,2.74,3.28,2.87,4.98.55,7.57.8,15.17,1.07,22.76.13,3.73.04,7.47.07,11.2.02,3.32,1.8,4.8,5.29,5.08,4.07.44,7.87.57,12.11.72,2.48-.02,4.52-.06,6.94-.07,1.12.03,1.87.04,3.09.03,18.16.01,35.86.04,53.81.3,3.77.02,7.28-.19,11.25-.38,19.16,0,37.86-.01,56.99.01,3.03,0,5.62-.06,8.68-.04,121.13.09,241.8.1,362.46.1.5,0,1-.07,1.93-.06,3.02-.04,5.61-.12,8.67-.11,18.88.1,37.29.11,56.16.16,3.56-.01,6.66-.05,10.22-.05,18.45.07,36.45.1,54.83.15,1.43-.04,2.47-.1,3.96-.14,2.26,0,4.06-.04,6.31-.04,2.85.06,5.29.32,7.65.02,1.43-.18,2.76-1.24,4.49-1.9,4.53-1.25,6.64-5.09,5.65-8.98-.76-3-1.51-6.14-1.43-9.2.15-6.53.6-13.07,1.43-19.55.34-2.62.11-6.48,4.67-6.38,12.11,7.65,24.22,15.29,36.32,22.95,11.67,7.38,23.33,14.79,35.23,22.9.25,51.87.26,103.02.27,154.17-28.95.02-57.9.02-86.84.14-1.76,0-3.51,1.01-5.9,1.64-3.21-.18-5.78-.45-8.65-.99-4.49-.1-8.67.07-13.25.23-4.04-.31-7.67-.62-11.65-.86-.81.03-1.28,0-2.04-.33-14.83-.41-29.37-.54-43.91-.61-.56,0-1.13.57-2.1.93-1.5.03-2.6,0-3.82-.24-.71-.14-1.28-.06-2.32.06-3.84.11-7.22.19-11.06.23-21.22.07-41.98.17-63.15.19-2.96-.09-5.5-.1-8.51-.2-101.72-.09-202.98-.1-304.23-.09-1.32,0-2.64.2-4.37.27-2.93-.03-5.46-.02-8.45-.1-21.53-.06-42.59-.05-64.1-.08-3.52-.1-6.57-.16-9.96-.46-15.86-.35-31.39-.46-46.92-.51-.56,0-1.13.57-2.12.93-1.84.03-3.26,0-4.93-.29-4.21-.02-8.17.22-12.56.46-4.27-.04-8.1-.1-12.4-.18-3.24-.03-6.02-.04-8.8-.04M411.28,524.53c-4.14-13.32-8.28-26.63-12.43-39.95-1.24-3.98-3.74-6.68-7.99-7.3-4.29-.63-7.94.68-10.5,4.29-1.35,1.89-2.45,3.96-3.66,5.94-4.64,7.55-9.28,15.09-14.03,22.83-6.05-9.77-11.63-19.22-17.64-28.38-4.61-7.03-15.1-6.57-17.76.92-5.15,14.51-9.62,29.26-14.49,44.29,1.74.13,3.02.29,4.31.31q12.48.17,15.82-12.02c1.59-5.75,3.33-11.46,5.17-17.8,4.89,8.39,9.31,15.99,13.74,23.59,5.87,10.07,15.23,10.05,21.19-.1,4.43-7.56,8.78-15.17,13.56-23.44,3.07,10.32,5.92,19.9,8.86,29.79,4.81,0,9.46.09,14.09-.1.71-.03,1.36-1.35,1.77-2.87M743.26,479.76c-7.94,3.11-11.03,7.83-10.21,15.6.65,6.24,5.64,10.85,13.52,11.81,4.78.58,9.64.51,14.47.57,7.33.09,14.67,0,22,.06,2.35.02,5.4.14,4.77,3.37-.28,1.43-3.08,2.53-4.92,3.41-.95.45-2.3.1-3.46.1-11.17,0-22.33-.03-33.5.04-1.61,0-3.8-.11-4.72.82-3.45,3.48-6.47,7.38-10.07,11.61,19.88,0,38.84.1,57.79-.11,2.69-.03,5.5-1.32,8.02-2.51,5.17-2.45,8.16-8.17,7.66-14.01-.5-5.78-3.55-9.66-9.11-11.19-3.01-.83-6.19-1.33-9.31-1.39-9.5-.18-19-.05-28.5-.11-1.99-.01-4.09-.01-5.91-.65-1.1-.39-2.31-1.93-2.45-3.08-.1-.82,1.33-2.26,2.38-2.68,1.32-.52,2.95-.36,4.44-.37,10.83-.02,21.67.03,32.5-.07,1.53-.01,3.56-.26,4.5-1.23,3.29-3.42,6.21-7.21,9.76-11.45-2.21-.12-3.63-.26-5.04-.27-13.33-.02-26.67-.13-40,.05-4.63.06-9.25.85-14.58,1.7M628.48,496.67h-27.91v-5.23c.63-.2.95-.38,1.26-.38,8.33-.03,16.66-.05,25-.06,8.54-.01,14.49-4.28,17.78-12.63h-61.16v49.11c16.89,0,33.52.02,50.15-.05.88,0,2.03-.44,2.6-1.08,3.13-3.53,6.12-7.18,9.96-11.74h-45.58v-6.56c9.99,0,19.63.05,29.27-.05,1.54-.02,3.55-.28,4.51-1.25,2.85-2.88,5.28-6.16,8.55-10.09-5.19,0-9.31,0-14.42,0M694.1,515.03c2.39,2.55,4.75,5.13,7.19,7.63,1.6,1.64,3.22,4.38,5,4.52,6.95.53,13.96.22,22.06.22-6.18-5.88-11.35-10.79-16.68-15.86.94-.39,1.67-.71,2.41-1.01,7.03-2.79,10.68-7.72,10.81-14.61.13-6.68-3.52-12.35-10.45-14.83-4.32-1.54-8.99-2.64-13.56-2.84-10.31-.44-20.66-.21-30.99-.23-7.76-.02-14.6,5.11-17.25,13.01,15.04,0,30.03-.04,45.02.04,2.12.01,4.48.11,6.27,1.04,1.5.78,3.2,2.83,3.22,4.34.02,1.5-1.65,3.68-3.13,4.37-2.15,1.01-4.8,1.28-7.24,1.3-14.96.11-29.92.05-44.97.05v25.02h16.64v-12.63c8.68,0,16.83,0,25.65.47M443.95,523.58c-.75,1.13-1.49,2.25-2.39,3.61h61.96c-1.02-1.45-1.63-2.37-2.29-3.25-10-13.3-19.99-26.6-30.01-39.88-7.07-9.36-16.36-9.47-23.55-.22-10.32,13.27-20.58,26.59-30.84,39.9-.75.98-1.36,2.07-2.07,3.16,11.68,1.98,22.1,1.84,27.96-10.6,1.39-2.94,3.95-5.33,6-7.96,3.43-4.39,6.87-8.77,10.48-13.38,4.91,6.64,9.42,12.74,14.58,19.71-4.56,0-8.19.39-11.71-.08-7.84-1.04-13.95,1.05-18.1,8.98M172.32,527.48c4.16,0,8.34-.19,12.49.08,3.01.2,4.92-.89,6.64-3.26,3.81-5.25,7.84-10.34,11.82-15.46,3.52-4.54,7.1-9.04,10.89-13.87,4.95,6.72,9.49,12.87,14.53,19.71-7.13,0-13.12-.05-19.1.04-1.43.02-3.42.01-4.18.88-3.13,3.51-5.88,7.36-9.06,11.45h62.25c-11.57-15.33-22.54-30.15-33.84-44.71-5.58-7.19-14.63-7.13-20.67-.23-2.84,3.25-5.36,6.78-8,10.2-8.24,10.66-16.5,21.3-24.67,32.01-.63.83-3.5,2.26.92,3.17M66.49,478c-6.66,0-13.32-.04-19.97.04-1.42.02-3.35,0-4.17.86-3.49,3.6-6.64,7.53-10.59,12.12,15.95,0,30.57-.02,45.19.02,1.81,0,4-.29,5.35.58,1.71,1.11,3.62,3.18,3.8,5,.14,1.44-1.93,3.53-3.52,4.56-1.38.89-3.47.94-5.25.95-12.15.07-24.3.04-36.45.04-2.92,0-5.84,0-8.63,0v24.99h16.95v-12.1c9.01,0,17.51.25,25.99-.09,5.09-.21,10.29-.86,15.19-2.2,8.18-2.23,12.88-8.27,13.12-15.63.25-7.62-4.07-14.59-12.39-16.62-7.62-1.86-15.72-1.76-24.6-2.52M528.39,496.07c-.57-.87-1.61-1.72-1.64-2.6-.16-5.08-.08-10.17-.08-15.21h-16.57v48.84h16.78v-19.95c7.86,6.27,15.05,12.06,22.31,17.77,1.27,1,2.76,2.38,4.19,2.42,7.69.24,15.4.11,23.1.11.07-.34.15-.67.22-1.01-11.48-8.34-22.96-16.67-34.57-25.1,10.95-7.52,21.79-14.96,32.63-22.4-7.48-.93-14.59-1-21.7-.86-1.2.02-2.56.71-3.56,1.47-6.86,5.27-13.64,10.64-21.12,16.52M279.33,495.51c-4.81-5.07-9.59-10.17-14.44-15.2-.88-.91-2.05-2.14-3.12-2.17-6.53-.2-13.07-.1-19.6-.1-.28.54-.55,1.07-.83,1.61,7.47,7.09,14.62,14.57,22.5,21.16,7.7,6.44,12.18,13.68,10.15,23.99-.15.74.15,1.57.23,2.31h16.71c0-3.69.25-7.03-.06-10.31-.38-3.98.89-6.84,3.85-9.58,5.12-4.74,9.83-9.94,14.67-14.98,4.28-4.46,8.51-8.98,13.48-14.23-7.21,0-13.18-.14-19.14.11-1.38.06-2.98,1.18-4,2.26-5.65,6.06-11.14,12.26-17.48,19.29-.95-1.45-1.67-2.55-2.92-4.17M128.6,497.69v-19.3h-16.62v49.1c15.38,0,30.51.02,45.63-.04.92,0,2.14-.28,2.7-.9,3.24-3.61,6.33-7.36,10.25-11.99h-41.97c0-5.61,0-10.74,0-16.87Z"/>
      <path class="cls-14" d="M761.11,375.64c-4.47.35-4.25,4.21-4.59,6.83-.83,6.47-1.27,13.02-1.43,19.55-.07,3.06.67,6.19,1.43,9.2.99,3.89-1.12,7.73-5.68,8.56.47-50.71,1.33-101,2.18-151.29.1-6.2-2.71-10.65-8.55-12.69-29.32-10.23-58.63-20.49-88.06-30.39-10.16-3.42-20.65-5.83-31.13-8.74,0-2.13,0-3.95,0-5.77.06-37.15-.17-74.31.39-111.46.15-9.83-6.66-17.85-18.53-13.95-36.75,12.1-73.66,23.73-110.51,35.52-11.99,3.84-24.01,7.6-35.45,11.22-.48-6.27-.54-12.37-1.5-18.32-1.14-7.04-2.95-13.98-4.68-20.91-.64-2.56-.24-4.17,1.89-5.94,6.65-5.54,13.03-11.39,19.56-17.07,4.31-3.75,7.05-8.17,5.16-14.02-1.92-5.94-6.52-8.36-12.57-8.85-8.79-.71-17.58-1.57-26.31-2.73-1.65-.22-3.75-1.87-4.48-3.4-3.84-8.11-7.37-16.36-10.88-24.62-2.24-5.3-5.95-8.36-11.82-8.3-5.93.06-9.37,3.51-11.56,8.7-3.35,7.96-6.93,15.83-10.21,23.82-1.08,2.62-2.58,3.89-5.44,4.12-8.79.71-17.56,1.69-26.35,2.45-5.64.49-10.07,2.86-11.86,8.36-1.76,5.4-.08,10.05,4.35,13.82,6.59,5.61,12.9,11.56,19.55,17.09,2.71,2.25,3,4.39,2.44,7.75-2.09,12.55-8.46,24.52-4.79,38.09-1.31-.2-2.13-.23-2.88-.47-24.2-7.74-48.38-15.53-72.58-23.26-24.52-7.83-49.02-15.74-73.62-23.36-9.53-2.95-16.44,2.55-16.5,12.58-.05,9.66-.03,19.33,0,28.99.05,28.49.04,56.98.25,85.47.03,3.83-.98,5.32-4.89,6.28-10.63,2.63-21.19,5.66-31.59,9.11-27.42,9.1-54.76,18.45-82.09,27.83-5.92,2.03-9.09,6.24-9.04,12.85.2,25.16.03,50.32.4,75.47.38,25.8,1.24,51.59,1.89,77.39-3.21.03-4.99-1.45-5.01-4.76-.02-3.73.06-7.47-.07-11.2-.26-7.59-.52-15.19-1.07-22.76-.12-1.69-1.44-3.3-2.55-5.11-.81-22.42-1.32-44.67-1.73-66.93-.27-14.62-.63-29.24-.49-43.86.09-9.7,5.73-16.18,14.51-19.22,29.54-10.22,59.19-20.12,88.85-29.98,6.55-2.18,13.31-3.77,20.01-5.48,3.44-.88,4.67-2.71,4.62-6.36-.21-15.49-.12-30.98-.15-47.41-.02-22.58-.03-44.23-.04-65.88,3.02-13.73,15.99-19.09,28.61-14.53,11.56,4.18,23.53,7.2,35.29,10.84,17.73,5.49,35.45,11,53.13,16.65,8.59,2.75,17.05,5.94,25.62,8.76,6.08,2,12.22,3.87,18.43,5.43,1.04.26,3.46-1.17,3.7-2.18,1.78-7.65,3.25-15.38,4.61-23.12.17-.99-.56-2.51-1.36-3.26-6.3-5.83-12.83-11.41-19.06-17.31-6.14-5.82-7.55-13.21-4.85-20.95,2.68-7.67,8.09-12.67,16.67-13.41,6.91-.6,13.81-1.31,20.72-1.96,4.18-.39,7.47-1.74,9.13-6.2,2.4-6.47,5.19-12.8,7.98-19.11,4.43-10.03,12.64-12.61,22.85-11.76,6.62.55,13.54,6.05,16.58,13.73,2.6,6.58,5.21,13.18,8.33,19.51.86,1.75,3.48,3.42,5.48,3.67,8.19,1.04,16.49,1.19,24.66,2.3,7.69,1.05,12.85,6.15,15.16,13.2,2.36,7.19,1.64,14.65-3.92,20.37-4.82,4.96-10.41,9.16-15.6,13.77-3.72,3.3-7.19,6.43-5.19,12.51,2.23,6.79,3.52,13.89,5.33,21.32,10.01-3.33,19.18-6.49,28.43-9.42,15.04-4.77,30.16-9.29,45.19-14.08,14.59-4.64,29.04-9.72,43.69-14.16,8.76-2.66,17.7-4.96,26.71-6.53,10.09-1.76,19.78,8.86,19.72,19.55-.1,17.16-.02,34.31-.31,52.25-.38,20.54-.48,40.3-.53,60.06,0,.59.47,1.19.71,1.78,6.87,1.95,13.77,3.78,20.59,5.87,9.09,2.79,18.11,5.79,27.16,8.67,8.42,2.69,16.96,5.05,25.25,8.08,13.33,4.87,26.38,10.55,39.8,15.16,7.04,2.42,11.5,6.55,13.75,13.39.4,1.23.54,2.59.54,3.89.02,20.12,0,40.24-.3,61.15-.1,9.15.08,17.52.27,25.89.04,7.7.08,15.41.21,23.57Z"/>
      <path class="cls-26" d="M90.95,576.62c2.77-.4,5.55-.4,8.72.02,1.48,5.1,2.45,9.81,3.69,14.45,10.24,38.24,26.38,73.8,48.68,106.53,28.77,42.22,64.07,78.72,101.06,113.56,50.53,47.59,101.75,94.44,152.67,141.6,7.1,6.58,12.92,6.61,20.05.05,13.59-12.51,27.19-25.03,40.75-37.58,50.32-46.58,101.74-92.01,149.45-141.35,27.82-28.78,53.73-59.08,74.51-93.51,19.42-32.18,32.52-66.84,41.39-103.22,2.57.28,5.13.55,8.06.99-4.79,22.01-11.61,43.28-20.26,64.04-9.37,22.49-20.84,43.84-35.2,63.36-14.03,19.08-29.21,37.38-44.84,55.19-14.76,16.81-30.5,32.79-46.29,48.65-12.96,13.03-26.59,25.39-39.98,37.99-8.91,8.38-17.88,16.7-26.88,24.98-12.53,11.53-25.14,23-37.69,34.52-7.91,7.26-15.75,14.59-23.66,21.85-12.09,11.08-24.14,22.21-36.35,33.15-6.31,5.65-17.29,5.83-24.98.6-2.59-1.76-4.92-3.93-7.24-6.05-12.34-11.29-24.66-22.6-36.95-33.94-9.23-8.52-18.37-17.13-27.62-25.64-10.98-10.1-22.03-20.11-33.03-30.18-5.13-4.69-10.3-9.34-15.32-14.14-8.52-8.14-16.96-16.37-25.4-24.6-17.36-16.94-34.99-33.62-51.94-50.96-11.18-11.44-21.49-23.75-31.99-35.85-15.12-17.42-28.73-36-40.6-55.77-11.65-19.41-21.72-39.64-28.8-61.17-5.12-15.58-9.36-31.44-14-47.58Z"/>
      <path class="cls-44" d="M833.36,575.89c-.37-50.92-.38-102.07-.38-153.74.34.9.96,2.31.96,3.71.05,49.27.03,98.55.02,147.82,0,.66-.16,1.31-.61,2.2Z"/>
      <path class="cls-32" d="M.57,425.46c.39,48.11.4,96.41.4,145.17-.33-.7-.94-1.87-.94-3.04C-.01,520.78,0,473.96,0,427.13c0-.49.12-.99.56-1.67Z"/>
      <path class="cls-32" d="M197.55,92.44c.39,21.45.39,43.09.39,65.2-.32-.21-.9-.89-.9-1.57.01-21.14.08-42.29.51-63.63Z"/>
      <path class="cls-44" d="M633.88,209.53c-.29-.14-.75-.74-.75-1.33.05-19.76.15-39.52.5-59.58.27,19.95.28,40.21.25,60.91Z"/>
      <path class="cls-18" d="M760.94,351.62c-.23-7.91-.41-16.28-.35-24.96.29,7.96.34,16.23.35,24.96Z"/>
      <path class="cls-11" d="M598.15,422.08c-.5.03-1,.1-1.5.1-120.66,0-241.32-.02-362.43-.52-1.68-15.74-3.31-30.96-4.06-46.22-1.29-26.42-2.65-52.87-2.87-79.31-.49-61.47-.32-122.94-.4-184.41,0-.93.23-1.86.42-3.34,11.26,3.64,22.14,7.18,33.04,10.66,45.79,14.64,91.64,29.09,137.34,44,11.12,3.63,21.81,6.8,33.02.94,1.46-.76,3.1-1.21,4.68-1.72,51.18-16.34,102.37-32.68,153.56-49,5.12-1.63,10.27-3.16,15.89-4.88,0,2.6.01,4.41,0,6.23-.2,27.81-.39,55.61-.61,83.42-.34,43.47-.45,86.94-1.17,130.4-.35,20.78-1.82,41.54-2.9,62.31-.54,10.46-1.35,20.9-2.03,31.35M459.03,258.73c8.01-8.45,16.05-16.88,24.02-25.38,3.73-3.98,3.67-6.78-.22-10.74-4.19-4.28-8.47-8.47-12.75-12.65-5.43-5.28-7.05-5.29-12.46-.18-22.51,21.24-45.02,42.48-67.52,63.73-6.42,6.06-6.53,11.04-.22,17.47,4.55,4.63,9.25,9.11,13.87,13.67,5.1,5.02,7.35,4.99,12.36-.32,14.16-15.01,28.31-30.04,42.92-45.59M346.14,230.14c12.78,13.68,25.55,27.35,38.52,41.24,9.43-8.97,18.54-17.63,27.93-26.55-14.16-13.42-27.84-26.5-41.67-39.41-2.68-2.5-5.82-2.1-8.47.49-5.11,5-10.18,10.04-15.27,15.06-2.53,2.49-3.29,5.3-1.04,9.17M537.17,385.47h-22.45c-1.13-4.7.87-6.18,4.84-6.17,9.77.04,19.54.01,29.16.01v-6.6c-11,0-21.64-.29-32.26.11-6.6.24-10.03,4.5-10.16,11.21-.08,3.83-.02,7.66,0,11.49.06,9.33,3.88,13.26,13.33,13.41,7.99.13,15.99.04,23.98.01,1.75,0,3.49-.15,5.11-.22v-6.6c-9.02,0-17.66,0-26.29,0-8.27,0-9.06-.97-7.56-9.97h26.47q.64-6.06-4.17-6.7M431.85,383.47c-.57.65-1.13,1.87-1.71,1.88-8.43.12-16.86.08-25.75.08v-12.53h-7.34v35.76h7.54v-16.11h27.32v16.06h7.42v-35.74h-7.46c0,3.39,0,6.52-.01,10.6M312.79,386.76v-7.65h16.9v-6.15h-42.06v6.59h17.58v29.01h7.12c.21-.7.39-1.01.39-1.32.04-6.5.05-13,.07-20.48M429.45,200.21c2.67,1.94,5.34,3.88,8.07,5.87,3.47-9.24-.17-19.72-8.66-25.5-7.99-5.43-18.64-5.45-24.97.11,8.36,6.37,16.68,12.72,25.55,19.52M443.8,316.85c1.99,2.43,3.98,4.87,5.97,7.3-.02-.67-.04-1.34-.06-2.01,4.32-3.52,8.64-7.04,12.58-10.26-5.14-6.43-9.89-12.38-14.04-17.56-5.01,4.81-10.95,10.51-16.01,15.37,3.51,2.11,7.29,4.37,11.56,7.16M390.71,314.25c3.28-1.49,6.56-2.98,9.12-4.14-5.23-5.31-10.91-11.08-16.13-16.38-1.84,2.97-3.54,6.36-5.86,9.25-2.36,2.93-5.34,5.35-8.28,8.22,4.27,4.07,8.22,7.83,12.73,12.13,2.49-2.71,5.18-5.66,8.41-9.09M422.87,221.78c1.11-.59,2.23-1.18,3.91-2.06-11.34-8.48-22.22-16.61-33.53-25.06-1.86,19.19,10.68,30.62,29.62,27.12M466.33,339.31c2.35,2.35,4.41,5.15,7.16,6.86,1.65,1.02,4.78,1.13,6.5.22,2.37-1.25,4.47-3.6,5.83-5.96.85-1.47.94-4.49-.03-5.71-3.33-4.19-7.27-7.89-10.35-11.12-4.67,4.25-8.69,7.9-12.88,11.71,1.26,1.35,2.26,2.42,3.77,4M356.08,324.69c-2.7,2.69-5.38,5.4-8.12,8.06-2.82,2.75-2.77,5.44,0,8.17,1.3,1.28,2.57,2.6,3.88,3.86,2.78,2.66,5.51,2.58,8.27-.1,3.33-3.23,6.72-6.39,10.79-10.26-3.99-3.65-7.46-6.97-11.13-10.06-.65-.55-2.1-.16-3.68.32M397.99,185.02c-2.6,2.31-2.54,4.22.54,6.21,2.92,1.89,5.56,4.2,8.34,6.3,8.29,6.25,16.59,12.48,25.14,18.91,1.32-1.71,2.29-2.98,3.62-4.71-12.53-9.16-24.81-18.14-37.64-26.71M429.1,296.79c-3.23,3.55-6.45,7.1-10.1,11.11,9.09.57,28.71-20.85,27.07-29.1-5.65,6.01-11.06,11.76-16.97,17.99M469.92,320.78c-.94-2-1.88-4-2.58-5.48-4.74,4.29-8.84,7.99-13.2,11.92,1.84,1.75,3.32,3.16,4.3,4.09,3.95-3.62,7.46-6.85,11.47-10.54M373.65,322.01c-2.33-2.49-4.67-4.97-6.61-7.05-2.24,1.61-3.82,2.75-5.31,3.82,4.28,4.21,8.12,7.99,12.36,12.15,1.07-1.08,2.54-2.56,4.93-4.97-1.88-1.34-3.38-2.4-5.36-3.95Z"/>
      <path class="cls-10" d="M261.59,576.52c1.32-.11,2.64-.31,3.96-.31,101.26,0,202.51,0,304.12.45-2.13,8.37-4.54,16.32-7.09,24.23-16.66,51.69-40.06,100.33-66.78,147.46-3.66,6.46-7.83,12.64-11.83,18.56.36-1.64.71-2.92,1.23-4.13,5.18-12.22,8.16-24.76,6.91-38.21-2.14-23-12.29-41.43-30.69-55.34-25.84-19.54-64.37-19.74-89.79-.15-22.25,17.14-33.06,39.58-30.78,68.01,1.88,23.41,12.62,41.81,31.51,55.2,33.84,23.97,78.6,17.09,104.35-15.52.84-1.06,2.17-1.74,3.3-2.24-.4,1.25-.76,2.2-1.29,3.04-18.72,29.91-37.46,59.82-56.21,89.72-1.98,3.16-4.07,6.25-6.49,9.95-1.76-2.26-2.99-3.6-3.95-5.11-11.78-18.55-23.97-36.86-35.19-55.74-20.82-35.05-41.91-69.99-61.35-105.81-23.08-42.53-40.79-87.43-53.94-134.06M410.72,619.58c-6.75-.32-7.51-1.51-5.91-10.01h23.5v-6.48h-23.85c-1.1-5.15,1.28-6.48,5.39-6.44,8.41.08,16.81.02,25.22.02v-6.46c-9.66,0-19.11-.18-28.54.07-5.4.14-9.28,4.32-9.46,9.72-.18,5.48-.18,10.98.03,16.47.19,4.95,3.8,9.25,8.63,9.43,9.72.36,19.47.11,29.2.11v-6.42c-7.99,0-15.62,0-24.21,0M336.94,624.42c-2.63-4.88-5.26-9.76-7.92-14.71,6.26-2.28,8.9-5.39,8.67-10.08-.22-4.71-2.83-8.55-7.26-8.88-8.98-.67-18.05-.2-26.99-.2v35.36h6.91v-15.44c8.54-1.77,10.64-.83,14.41,6.18,1.1,2.05,2.14,4.12,3.26,6.16,2.17,3.95,4.16,4.44,8.91,1.61M514.68,612.97c5.87,4.24,11.75,8.47,18.1,13.05v-35.53h-6.86v22.1c-10.5-7.59-20.36-14.7-30.63-22.12v35.46h6.82v-22.01c4.5,3.22,8.27,5.9,12.58,9.06Z"/>
      <path class="cls-29" d="M654.95,576.23c1.1.03,2.19.05,4.03.25,11.87.25,23.01.4,34.15.38,3.94,0,7.89-.41,11.83-.63.47.04.93.07,2.03.29,1,1.79,2.04,3.59,1.65,5-5.77,21.23-13.05,41.91-22.56,61.79-18.5,38.69-44.23,72.29-73.3,103.41-15.9,17.02-32.44,33.48-49.26,49.59-25.23,24.16-50.92,47.86-76.52,71.64-22.55,20.96-45.28,41.73-67.82,62.7-2.5,2.33-3.98,2.44-6.53.06-13.89-12.91-28-25.59-41.96-38.43-25.96-23.89-52.35-47.33-77.68-71.88-28.45-27.56-56.53-55.56-83.64-84.43-26.88-28.63-49.68-60.51-65.49-96.68-7.96-18.24-13.94-37.35-20.58-56.14-.77-2.18-2.71-5.54,1.64-6.91,1.42.03,2.84.06,5.01.26,16.86.3,32.96.43,49.11.95,7.99,22.08,14.79,44.28,24.13,65.35,15.02,33.9,35.83,64.51,58.08,94.07,30.63,40.7,64.39,78.79,98.01,116.98,14.07,15.98,28.36,31.77,42.59,47.6,4.51,5.01,9.15,9.9,14.02,15.15,4.45-4.84,8.43-9.05,12.28-13.37,18.26-20.48,36.58-40.92,54.69-61.52,15.04-17.11,29.96-34.32,44.7-51.69,24.87-29.29,48.6-59.45,69.69-91.63,14.92-22.76,28.24-46.38,38.25-71.68,6.48-16.37,11.64-33.27,17.66-49.88.77-.16,1.26-.37,1.76-.58Z"/>
      <path class="cls-1" d="M189.08,576.35c21.06-.02,42.11-.03,63.6.41,3.91,12.41,6.95,24.5,10.94,36.26,15.5,45.69,35.31,89.57,59.72,131.1,27.81,47.32,57.24,93.7,86.02,140.45,1.86,3.02,4.17,5.75,6.49,8.92,1.54-2.01,2.78-3.36,3.72-4.89,27.56-44.57,55.61-88.85,82.48-133.83,26.69-44.67,48.9-91.6,65.5-141.02,4.12-12.26,7.45-24.79,11.15-37.19,20.76-.1,41.51-.19,62.76.15.47,1.6.73,2.85.4,3.91-3.36,10.54-6.66,21.11-10.34,31.54-1.03,2.92-3.28,5.41-5.22,7.88-5.5-9.95-10.76-19.68-16.42-30.15-6.68,12.37-12.92,23.94-19.25,35.66,5.11,1.53,8.26.6,10.38-4.21,2.42-5.5,5.63-10.65,8.86-16.61,3.57,6.54,6.55,12.45,10,18.07,1,1.62,3.35,2.42,5.09,3.97-.09,1.2.03,2.13-.33,2.82-7.58,14.68-14.81,29.56-22.94,43.93-6.6,11.66-13.83,23.02-21.62,33.92-11.17,15.65-22.96,30.87-34.75,46.08-9.14,11.79-18.45,23.46-28.11,34.83-12.14,14.28-24.71,28.21-37.11,42.27-17.33,19.66-34.65,39.33-52.03,58.95-3.81,4.31-7.83,8.44-11.87,12.77-1.04-.78-1.78-1.18-2.31-1.76-5.66-6.27-11.26-12.6-16.91-18.87-12.45-13.81-25.11-27.43-37.35-41.42-18.78-21.48-37.5-43.01-55.84-64.87-20.56-24.5-40.27-49.65-57.84-76.47-14.36-21.93-28.39-43.95-38.23-68.34-5.15-12.75-10.13-25.58-14.81-38.52-1.83-5.05-2.6-10.48-3.85-15.74M242.36,619.23c-5.16-9.55-10.33-19.09-15.87-29.34-6.71,12.46-12.97,24.06-19.26,35.74,5.56,1.63,8.61-.03,10.71-4.86,2.3-5.3,5.42-10.24,8.54-16,3.19,5.83,6.45,10.86,8.77,16.29,2.14,5.03,5.33,6.12,10.39,4.56-.97-1.96-1.92-3.87-3.27-6.39Z"/>
      <path class="cls-5" d="M81.32,421.5c-.93-26.11-1.78-51.9-2.16-77.7-.37-25.15-.2-50.31-.4-75.47-.05-6.62,3.12-10.82,9.04-12.85,27.33-9.38,54.66-18.73,82.09-27.83,10.4-3.45,20.96-6.48,31.59-9.11,3.91-.97,4.92-2.46,4.89-6.28-.21-28.49-.2-56.98-.25-85.47-.02-9.66-.04-19.33,0-28.99.05-10.03,6.96-15.53,16.5-12.58,24.59,7.61,49.09,15.52,73.62,23.36,24.2,7.73,48.38,15.52,72.58,23.26.75.24,1.58.26,2.88.47-3.67-13.57,2.7-25.55,4.79-38.09.56-3.37.26-5.5-2.44-7.75-6.65-5.53-12.96-11.48-19.55-17.09-4.43-3.77-6.11-8.42-4.35-13.82,1.79-5.5,6.22-7.87,11.86-8.36,8.79-.76,17.56-1.74,26.35-2.45,2.86-.23,4.37-1.5,5.44-4.12,3.28-7.99,6.86-15.86,10.21-23.82,2.19-5.19,5.63-8.64,11.56-8.7,5.87-.06,9.57,3,11.82,8.3,3.5,8.26,7.04,16.51,10.88,24.62.73,1.54,2.83,3.18,4.48,3.4,8.74,1.17,17.52,2.03,26.31,2.73,6.05.49,10.65,2.9,12.57,8.85,1.89,5.85-.85,10.27-5.16,14.02-6.53,5.68-12.91,11.53-19.56,17.07-2.13,1.77-2.53,3.38-1.89,5.94,1.74,6.93,3.55,13.87,4.68,20.91.96,5.95,1.02,12.05,1.5,18.32,11.44-3.62,23.45-7.38,35.45-11.22,36.85-11.79,73.76-23.42,110.51-35.52,11.88-3.91,18.68,4.11,18.53,13.95-.56,37.15-.33,74.31-.39,111.46,0,1.82,0,3.65,0,5.77,10.47,2.91,20.97,5.32,31.13,8.74,29.43,9.9,58.74,20.16,88.06,30.39,5.84,2.04,8.66,6.49,8.55,12.69-.85,50.29-1.71,100.58-2.53,151.29-1.34,1.09-2.66,2.14-4.1,2.33-2.37.3-4.8.04-7.67-.45-.16-10.78.26-21.09.43-31.4.64-39.58,1.17-79.16,1.87-118.74.06-3.17-.89-4.75-3.89-5.81-6.41-2.25-12.62-5.08-19.05-7.28-15.33-5.25-30.74-10.27-46.44-15.45-.74-.04-1.16,0-1.74-.3-2.05-.76-3.94-1.19-5.85-1.57-.02.05.07,0-.08-.34-6.09-2.1-12.03-3.86-18.28-5.84-11.08-2.93-21.87-5.64-32.6-8.78.06-43.2.06-85.98.06-129.42-2.91.78-5.29,1.32-7.61,2.06-11.57,3.69-23.12,7.45-34.69,11.14-50.09,15.97-100.16,31.97-150.31,47.77-2.92.92-6.62.92-9.55.04-16.56-5.01-33-10.41-49.48-15.69-34.86-11.15-69.72-22.31-104.59-33.45-12.8-4.09-25.62-8.13-38.82-12.32,0,12.78-.05,24.93.01,37.07.1,18.82.39,37.64.41,56.46,0,12.14-.33,24.28-.83,36.45-.62.27-.94.51-1.39.71-.14-.05-.31.19-.72.18-8.96,2.28-17.52,4.57-26.23,6.82-.16-.03-.36.21-.75.21-4.36,1.27-8.33,2.54-12.35,3.73-.05-.08-.23-.03-.63-.02-3.38,1.02-6.36,2.04-9.39,2.98-.04-.08-.22-.04-.62,0-23.59,8.14-46.77,16.3-70,24.29-3.74,1.29-4.87,3.26-4.81,7.25.52,37.3.75,74.61,1.18,111.91.15,12.63.66,25.25,1.01,37.88-3.8-.13-7.6-.25-11.67-.69M389.7,89.34c-2.4,10.89-4.79,21.77-7.47,33.93,7.74-4.54,14.73-7.61,20.47-12.23,9.2-7.41,17.2-7.09,26.32.09,5.85,4.6,12.87,7.72,20.4,12.11-2.68-12.15-4.93-23.03-7.57-33.82-.74-3.02-.28-4.82,2.08-6.84,8.67-7.42,17.14-15.07,26.36-23.23-8.49-.8-16.07-2.22-23.61-2.05-11.32.25-18.36-3.62-21.39-15.25-1.92-7.38-6.03-14.19-9.55-22.12-5.02,11.55-9.47,22.09-14.25,32.49-.72,1.56-2.87,3.25-4.53,3.46-8.75,1.09-17.56,1.71-26.34,2.53-2.83.26-5.65.64-9.19,1.05,9.24,8.18,17.81,15.58,26.11,23.28,1.38,1.28,1.57,3.84,2.16,6.63Z"/>
      <path class="cls-17" d="M731.6,576.91c-8.56,36.65-21.66,71.3-41.08,103.48-20.78,34.43-46.69,64.73-74.51,93.51-47.71,49.34-99.13,94.77-149.45,141.35-13.56,12.55-27.16,25.06-40.75,37.58-7.13,6.56-12.95,6.53-20.05-.05-50.92-47.17-102.14-94.02-152.67-141.6-36.99-34.84-72.28-71.33-101.06-113.56-22.31-32.74-38.44-68.29-48.68-106.53-1.24-4.64-2.21-9.35-3.23-14.42,3.91-.34,7.74-.28,12.11.14,9.94,39.37,25.31,75.81,47.28,109.41,27.62,42.24,62.13,78.56,98.57,113.04,45.59,43.14,91.9,85.52,137.9,128.21,6.53,6.06,13.12,12.07,19.84,18.25,11.55-10.66,22.75-20.84,33.78-31.2,49.86-46.83,99.97-93.39,149.38-140.7,25.16-24.09,47.72-50.63,67.56-79.36,24.75-35.84,42.18-74.93,52.21-117.32,4.18-.17,8.36-.34,12.84-.24Z"/>
      <path class="cls-1" d="M662.95,422.13c-18.41-.01-36.82-.03-55.67-.56.56-13.09,1.91-25.66,2.52-38.26,1.26-26.07,2.44-52.16,3.07-78.26.56-23.3.35-46.63.81-69.86,4.46,1.26,8.58,2.43,12.7,3.63,11.79,3.43,23.53,7.07,35.4,10.22,3.87,1.02,5.36,2.45,5.31,6.65-.5,35.78-.71,71.56-1.13,107.33-.17,14.62-.5,29.25-1.06,43.86-.19,5.1-1.27,10.16-1.94,15.24Z"/>
      <path class="cls-1" d="M225.08,422.07c-18.7.02-37.4.04-56.58-.38-1.16-11.19-2.05-21.92-2.44-32.67-.55-15.1-.93-30.22-1.01-45.33-.16-29.79-.03-59.59-.11-89.39,0-3.03,1.04-4.44,4.02-5.18,6.28-1.56,12.43-3.62,18.68-5.26,10.08-2.65,20.21-5.13,30.38-7.22.32,12.11.57,23.76.84,35.41.7,30.45,1.08,60.91,2.23,91.35.74,19.58,2.62,39.12,4,58.68Z"/>
      <path class="cls-8" d="M225.52,422.12c-1.81-19.61-3.69-39.14-4.43-58.73-1.15-30.43-1.53-60.9-2.23-91.35-.27-11.65-.52-23.3-.78-35.82-.02-3.6-.04-6.32-.04-9.28.02-.24-.04-.71-.04-.71.19-12.14.53-24.28.52-36.42-.01-18.82-.3-37.64-.41-56.46-.07-12.15-.01-24.3-.01-37.07,13.2,4.19,26.02,8.23,38.82,12.32,34.87,11.14,69.73,22.3,104.59,33.45,16.48,5.27,32.92,10.68,49.48,15.69,2.94.89,6.63.89,9.55-.04,50.14-15.8,100.22-31.8,150.31-47.77,11.57-3.69,23.12-7.45,34.69-11.14,2.32-.74,4.69-1.28,7.61-2.06,0,43.44,0,86.21-.05,129.9.05,3.44.14,5.96.24,8.48-.13,23.31.09,46.64-.48,69.94-.63,26.1-1.81,52.18-3.07,78.26-.61,12.6-1.95,25.16-2.99,38.17-2.61.51-5.2.59-8.22.63.25-10.48,1.06-20.93,1.6-31.38,1.08-20.77,2.56-41.53,2.9-62.31.72-43.46.83-86.93,1.17-130.4.22-27.81.41-55.61.61-83.42.01-1.82,0-3.63,0-6.23-5.63,1.73-10.78,3.25-15.89,4.88-51.19,16.32-102.38,32.66-153.56,49-1.58.51-3.22.96-4.68,1.72-11.21,5.85-21.9,2.69-33.02-.94-45.7-14.91-91.55-29.36-137.34-44-10.9-3.48-21.78-7.03-33.04-10.66-.19,1.48-.42,2.41-.42,3.34.08,61.47-.09,122.94.4,184.41.21,26.45,1.58,52.89,2.87,79.31.74,15.27,2.38,30.49,3.58,46.15-2.62.47-5.21.53-8.24.54Z"/>
      <path class="cls-9" d="M157.01,422.24c-17.69-.03-35.39-.06-53.73-.45-.86-1.5-1.23-2.63-1.26-3.76-.65-20.41-1.49-40.81-1.81-61.22-.4-25.26-.24-50.52-.6-75.78-.07-4.64.48-8.37,5.2-10.54.58.02.89-.08,1.56-.27,5.79-2.04,11.19-4.08,16.88-6.12.79-.27,1.28-.55,2.16-.84,8.73-2.85,17.08-5.64,25.4-8.54,3.59-1.25,4.99.16,5,3.66,0,3.48,0,6.95.03,10.43.46,42.08.92,84.17,1.4,126.25.02,1.82.4,3.64.36,5.46-.15,7.24-.39,14.48-.6,21.72Z"/>
      <path class="cls-15" d="M728.08,422.23c-18-.03-35.99-.06-54.47-.57.05-11.28.82-22.07,1.07-32.88.51-21.64.84-43.28,1.04-64.93.2-21.32.14-42.65.21-63.98,0-1.78.17-3.55.29-5.95,2.31.52,4.11.72,5.76,1.32,15.18,5.46,30.31,11.1,45.54,16.42,3.44,1.2,4.55,2.88,4.48,6.48-.39,19.31-.47,38.62-.77,57.94-.38,24.64-.79,49.29-1.38,73.92-.1,4.09-1.15,8.16-1.77,12.23Z"/>
      <path class="cls-25" d="M718.35,577.14c-9.63,42.39-27.05,81.49-51.8,117.33-19.84,28.73-42.41,55.28-67.56,79.36-49.4,47.31-99.52,93.87-149.38,140.7-11.03,10.36-22.22,20.54-33.78,31.2-6.72-6.18-13.31-12.19-19.84-18.25-46.01-42.7-92.31-85.08-137.9-128.21-36.44-34.48-70.94-70.8-98.57-113.04-21.98-33.6-37.34-70.04-46.85-109.42,3.86-.62,7.82-.85,12.03-.83-4.1,1.62-2.16,4.99-1.39,7.16,6.64,18.8,12.61,37.91,20.58,56.14,15.8,36.18,38.61,68.05,65.49,96.68,27.11,28.87,55.19,56.87,83.64,84.43,25.33,24.54,51.71,47.99,77.68,71.88,13.96,12.84,28.07,25.52,41.96,38.43,2.56,2.38,4.03,2.26,6.53-.06,22.54-20.97,45.26-41.74,67.82-62.7,25.59-23.78,51.28-47.48,76.52-71.64,16.82-16.11,33.36-32.57,49.26-49.59,29.07-31.12,54.8-64.72,73.3-103.41,9.51-19.88,16.79-40.56,22.56-61.79.38-1.41-.65-3.2-1.31-5.06,3.35.06,6.98.37,11.02.68Z"/>
      <path class="cls-12" d="M188.62,576.3c1.71,5.31,2.48,10.74,4.31,15.79,4.67,12.93,9.66,25.76,14.81,38.52,9.84,24.39,23.87,46.42,38.23,68.34,17.56,26.83,37.28,51.97,57.84,76.47,18.34,21.85,37.06,43.39,55.84,64.87,12.24,13.99,24.9,27.62,37.35,41.42,5.66,6.27,11.26,12.59,16.91,18.87.53.59,1.27.98,2.31,1.76,4.04-4.33,8.06-8.46,11.87-12.77,17.37-19.62,34.7-39.29,52.03-58.95,12.4-14.07,24.97-27.99,37.11-42.27,9.66-11.36,18.97-23.04,28.11-34.83,11.79-15.2,23.58-30.42,34.75-46.08,7.78-10.9,15.01-22.27,21.62-33.92,8.14-14.37,15.37-29.24,22.94-43.93.36-.69.24-1.62.71-2.9,1.39-.59,2.41-.71,3.72-.86-.95-2.1-1.73-3.82-2.51-5.55,1.69-2.69,3.94-5.18,4.97-8.1,3.69-10.43,6.99-21,10.34-31.54.34-1.06.08-2.31.07-3.89,3.35-.49,6.73-.56,10.57-.49.46.14.4.5.4.5-5.75,16.66-10.91,33.56-17.39,49.93-10.01,25.3-23.34,48.92-38.25,71.68-21.09,32.18-44.83,62.34-69.69,91.63-14.74,17.36-29.66,34.58-44.7,51.69-18.12,20.61-36.43,41.04-54.69,61.52-3.85,4.32-7.83,8.54-12.28,13.37-4.87-5.25-9.51-10.14-14.02-15.15-14.23-15.84-28.53-31.62-42.59-47.6-33.62-38.2-67.38-76.29-98.01-116.98-22.25-29.56-43.06-60.17-58.08-94.07-9.34-21.08-16.14-43.27-24.14-65.59-.06-.62-.06-1.1-.06-1.1,3.06.05,6.11.11,9.63.21Z"/>
      <path class="cls-33" d="M578.3,576.5c-3.28,12.48-6.62,25.01-10.74,37.27-16.6,49.42-38.81,96.35-65.5,141.02-26.87,44.98-54.92,89.26-82.48,133.83-.95,1.53-2.18,2.88-3.72,4.89-2.32-3.17-4.63-5.9-6.49-8.92-28.78-46.75-58.21-93.13-86.02-140.45-24.41-41.53-44.21-85.41-59.72-131.1-3.99-11.77-7.03-23.86-10.47-36.18,2.57-.39,5.09-.4,8.02-.37,13.57,46.67,31.28,91.57,54.36,134.1,19.44,35.82,40.53,70.75,61.35,105.81,11.22,18.88,23.4,37.19,35.19,55.74.96,1.51,2.19,2.85,3.95,5.11,2.42-3.7,4.51-6.79,6.49-9.95,18.75-29.9,37.48-59.8,56.21-89.72.52-.84.88-1.78,1.29-3.03-.02-.35-.04-.36.28-.47,1.1-1.71,1.87-3.32,2.66-4.91.03.02-.02-.03.24-.09.34-.38.43-.7.62-1.2.11-.18.22-.58.22-.58,3.93-6.31,8.09-12.49,11.76-18.95,26.72-47.13,50.12-95.77,66.78-147.46,2.55-7.91,4.97-15.86,7.56-24.15,2.66-.34,5.2-.33,8.16-.24Z"/>
      <path class="cls-4" d="M411.42,524.93c-.54,1.12-1.2,2.44-1.91,2.47-4.63.19-9.28.1-14.09.1-2.94-9.89-5.79-19.47-8.86-29.79-4.78,8.27-9.12,15.88-13.56,23.44-5.95,10.15-15.32,10.17-21.19.1-4.43-7.6-8.85-15.2-13.74-23.59-1.85,6.34-3.58,12.05-5.17,17.8q-3.37,12.17-15.82,12.02c-1.28-.02-2.56-.18-4.31-.31,4.87-15.03,9.34-29.78,14.49-44.29,2.66-7.5,13.15-7.96,17.76-.92,6.01,9.16,11.6,18.61,17.64,28.38,4.75-7.73,9.39-15.28,14.03-22.83,1.22-1.98,2.32-4.05,3.66-5.94,2.57-3.61,6.21-4.92,10.5-4.29,4.24.63,6.75,3.32,7.99,7.3,4.14,13.31,8.28,26.63,12.56,40.35Z"/>
      <path class="cls-2" d="M728.47,422.26c.22-4.1,1.28-8.17,1.38-12.26.59-24.64,1-49.28,1.38-73.92.3-19.31.38-38.63.77-57.94.07-3.6-1.04-5.28-4.48-6.48-15.23-5.32-30.36-10.95-45.54-16.42-1.65-.59-3.45-.8-5.76-1.32-.12,2.39-.28,4.17-.29,5.95-.07,21.33-.01,42.65-.21,63.98-.2,21.64-.53,43.29-1.04,64.93-.25,10.8-1.02,21.59-1.53,32.84-3.07.48-6.17.52-9.73.53.21-5.1,1.29-10.17,1.48-15.26.55-14.61.89-29.24,1.06-43.86.42-35.78.62-71.56,1.13-107.33.06-4.21-1.44-5.63-5.31-6.65-11.87-3.15-23.61-6.78-35.4-10.22-4.12-1.2-8.24-2.37-12.7-3.63-.43-2.6-.53-5.13-.63-8.14,10.77,2.23,21.56,4.94,32.7,8.25,1,1.3,1.55,2.45,2.31,2.62,5.33,1.17,10.7,2.14,16.06,3.17,0,0-.09.05-.08.4,1.75,4.58,3.22,4.86,6.02,1.51.42-.04.85-.07,1.75.3,1.05,1.75,1.76,3.05,2.17,4.44,1.21,4.04,4.1,5.07,7.74,2.75.76-.48,1.72-.64,2.16-.8,1.14,1.98,2.54,5.11,2.93,4.99,4.33-1.34,6.77,2.08,10.02,3.41,5.33,2.18,10.76,4.09,16.17,6.07,4.62,1.69,9.15,4.11,13.92,4.75,5.69.76,7.15,3.46,7.13,8.6-.11,28.99-.06,57.98-.06,86.97,0,1.33-.03,2.66-.08,4-.64,17.87-1.28,35.73-1.93,53.6-1.04.06-2.08.13-3.51.17Z"/>
      <path class="cls-4" d="M743.61,479.56c4.98-.65,9.6-1.44,14.23-1.51,13.33-.18,26.66-.07,40-.05,1.42,0,2.83.15,5.04.27-3.55,4.24-6.47,8.02-9.76,11.45-.93.97-2.97,1.22-4.5,1.23-10.83.1-21.67.05-32.5.07-1.49,0-3.12-.16-4.44.37-1.05.42-2.48,1.86-2.38,2.68.14,1.15,1.35,2.7,2.45,3.08,1.83.64,3.93.64,5.91.65,9.5.06,19-.07,28.5.11,3.12.06,6.3.56,9.31,1.39,5.56,1.53,8.62,5.42,9.11,11.19.5,5.85-2.49,11.56-7.66,14.01-2.52,1.2-5.33,2.48-8.02,2.51-18.95.22-37.91.11-57.79.11,3.6-4.23,6.63-8.12,10.07-11.61.92-.93,3.11-.81,4.72-.82,11.17-.06,22.33-.03,33.5-.04,1.17,0,2.51.36,3.46-.1,1.84-.88,4.64-1.98,4.92-3.41.63-3.23-2.42-3.35-4.77-3.37-7.33-.06-14.67.03-22-.06-4.83-.06-9.69,0-14.47-.57-7.88-.96-12.87-5.57-13.52-11.81-.81-7.77,2.28-12.49,10.57-15.79Z"/>
      <path class="cls-24" d="M628.97,496.67c4.61,0,8.73,0,13.92,0-3.26,3.93-5.7,7.21-8.55,10.09-.96.97-2.97,1.23-4.51,1.25-9.64.11-19.29.05-29.27.05v6.56h45.58c-3.83,4.56-6.82,8.21-9.96,11.74-.57.64-1.72,1.07-2.6,1.08-16.63.06-33.26.05-50.15.05v-49.11h61.16c-3.28,8.35-9.24,12.62-17.78,12.63-8.33.01-16.66.03-25,.06-.31,0-.62.18-1.26.38v5.23c9.37,0,18.64,0,28.41,0Z"/>
      <path class="cls-4" d="M693.77,514.79c-8.48-.23-16.63-.23-25.32-.23v12.63h-16.64v-25.02c15.05,0,30.01.05,44.97-.05,2.44-.02,5.09-.29,7.24-1.3,1.48-.7,3.15-2.88,3.13-4.37-.02-1.51-1.72-3.56-3.22-4.34-1.79-.93-4.15-1.03-6.27-1.04-14.99-.08-29.97-.04-45.02-.04,2.66-7.91,9.5-13.03,17.25-13.01,10.33.02,20.67-.21,30.99.23,4.56.2,9.24,1.3,13.56,2.84,6.94,2.47,10.58,8.15,10.45,14.83-.13,6.9-3.78,11.83-10.81,14.61-.74.29-1.47.61-2.41,1.01,5.33,5.07,10.5,9.98,16.68,15.86-8.1,0-15.11.31-22.06-.22-1.77-.13-3.4-2.88-5-4.52-2.44-2.5-4.8-5.08-7.52-7.86Z"/>
      <path class="cls-24" d="M444.17,523.3c3.93-7.65,10.04-9.74,17.88-8.71,3.52.46,7.14.08,11.71.08-5.15-6.97-9.66-13.07-14.58-19.71-3.61,4.6-7.05,8.98-10.48,13.38-2.05,2.63-4.61,5.02-6,7.96-5.87,12.44-16.28,12.58-27.96,10.6.71-1.09,1.32-2.18,2.07-3.16,10.27-13.31,20.52-26.63,30.84-39.9,7.2-9.25,16.49-9.14,23.55.22,10.02,13.28,20.02,26.59,30.01,39.88.66.88,1.27,1.8,2.29,3.25h-61.96c.9-1.35,1.64-2.48,2.61-3.88Z"/>
      <path class="cls-16" d="M171.92,527.47c-4.02-.89-1.15-2.33-.52-3.15,8.17-10.71,16.43-21.35,24.67-32.01,2.65-3.42,5.16-6.95,8-10.2,6.04-6.9,15.09-6.97,20.67.23,11.3,14.56,22.27,29.38,33.84,44.71h-62.25c3.18-4.09,5.93-7.93,9.06-11.45.77-.86,2.75-.85,4.18-.88,5.98-.09,11.97-.04,19.1-.04-5.04-6.84-9.58-12.99-14.53-19.71-3.79,4.83-7.37,9.33-10.89,13.87-3.98,5.13-8,10.22-11.82,15.46-1.73,2.38-3.63,3.46-6.64,3.26-4.15-.27-8.32-.08-12.89-.1Z"/>
      <path class="cls-22" d="M157.27,422.48c-.06-7.47.19-14.71.33-21.95.04-1.82-.34-3.64-.36-5.46-.48-42.08-.94-84.17-1.4-126.25-.04-3.48-.03-6.95-.03-10.43,0-3.5-1.41-4.91-5-3.66-8.32,2.9-16.67,5.69-25.35,8.18,3.81-2.14,7.98-3.86,12.09-5.75,3.85-1.77,9.39-.88,10.21-6.19,2.75.15,6.46,1.19,7.06.24,2.78-4.37,6.06-7.75,10.99-9.46.16-.05.14-.61.2-.93,0,0,.17-.03.68.12,3.76-.07,7.38.75,9.32-3.05,0,0,.18-.05.72.08,4.93.29,9.46.84,12.26-3.79,0,0,.2-.25.76-.05,3.71.02,6.91.1,10.01-.4,3.49-.57,6.99-1.39,10.29-2.64,2.16-.82,3.97-2.59,5.93-3.93,0,0,.17-.24.71-.14.79.12,1.06.14,1.32.16.02,2.72.04,5.44,0,8.57-10.17,2.96-20.3,5.45-30.38,8.1-6.26,1.64-12.41,3.7-18.68,5.26-2.98.74-4.03,2.16-4.02,5.18.09,29.8-.04,59.59.11,89.39.08,15.11.46,30.23,1.01,45.33.39,10.75,1.28,21.48,1.98,32.64-3.49.63-7,.84-10.77.82Z"/>
      <path class="cls-38" d="M66.99,478c8.39.76,16.49.66,24.1,2.52,8.33,2.04,12.65,9,12.39,16.62-.25,7.36-4.94,13.4-13.12,15.63-4.91,1.34-10.1,1.99-15.19,2.2-8.47.35-16.97.09-25.99.09v12.1h-16.95v-24.99c2.79,0,5.71,0,8.63,0,12.15,0,24.3.03,36.45-.04,1.78-.01,3.86-.06,5.25-.95,1.59-1.03,3.67-3.13,3.52-4.56-.18-1.82-2.09-3.89-3.8-5-1.35-.87-3.54-.58-5.35-.58-14.62-.04-29.24-.02-45.19-.02,3.95-4.59,7.11-8.51,10.59-12.12.82-.85,2.75-.84,4.17-.86,6.66-.08,13.32-.04,20.47-.04Z"/>
      <path class="cls-4" d="M528.73,495.81c7.14-5.61,13.92-10.98,20.78-16.25.99-.76,2.35-1.45,3.56-1.47,7.11-.14,14.22-.07,21.7.86-10.84,7.44-21.69,14.89-32.63,22.4,11.61,8.43,23.09,16.76,34.57,25.1-.07.34-.15.67-.22,1.01-7.7,0-15.4.13-23.1-.11-1.43-.04-2.92-1.42-4.19-2.42-7.25-5.71-14.45-11.49-22.31-17.77v19.95h-16.78v-48.84h16.57c0,5.04-.08,10.13.08,15.21.03.88,1.06,1.74,1.97,2.34Z"/>
      <path class="cls-38" d="M279.59,495.77c.99,1.36,1.71,2.46,2.66,3.91,6.34-7.03,11.84-13.23,17.48-19.29,1.01-1.09,2.62-2.21,4-2.26,5.96-.25,11.93-.11,19.14-.11-4.97,5.25-9.19,9.77-13.48,14.23-4.84,5.04-9.55,10.24-14.67,14.98-2.96,2.74-4.24,5.6-3.85,9.58.31,3.28.06,6.61.06,10.31h-16.71c-.08-.74-.38-1.57-.23-2.31,2.03-10.31-2.45-17.55-10.15-23.99-7.88-6.6-15.03-14.07-22.5-21.16.28-.54.55-1.07.83-1.61,6.53,0,13.07-.1,19.6.1,1.07.03,2.24,1.26,3.12,2.17,4.86,5.03,9.64,10.13,14.71,15.46Z"/>
      <path class="cls-27" d="M165.61,240.86c.34.29.36.85.2.9-4.93,1.71-8.21,5.09-10.99,9.46-.6.94-4.31-.09-7.06-.24-.83,5.31-6.36,4.42-10.21,6.19-4.1,1.88-8.28,3.61-12.48,5.76-.54.64-1.03.91-2.08.94-4.32.69-8.17,1.4-11.81,2.7-1.92.69-3.48,2.41-5.2,3.67-.28.19-.59.29-1.58.19-2.31-.66-3.97-1.21-6.42-2.01,0,13.87-.17,27.33.03,40.78.58,37.64,1.31,75.28,1.98,112.93-2.04.04-4.09.08-6.57.1-.78-12.65-1.3-25.27-1.45-37.9-.44-37.3-.66-74.61-1.18-111.91-.06-3.99,1.07-5.96,4.81-7.25,23.23-7.99,46.4-16.15,70-24.29Z"/>
      <path class="cls-18" d="M732.43,422.12c.19-17.89.84-35.76,1.48-53.62.05-1.33.08-2.66.08-4,0-28.99-.05-57.98.06-86.97.02-5.14-1.44-7.83-7.13-8.6-4.77-.64-9.3-3.06-13.92-4.75-5.41-1.98-10.85-3.88-16.17-6.07-3.25-1.33-5.69-4.75-10.02-3.41-.39.12-1.79-3.01-2.93-4.99-.44.16-1.4.31-2.16.8-3.64,2.32-6.53,1.28-7.74-2.75-.42-1.39-1.12-2.69-1.86-4.37,15.22,4.77,30.63,9.79,45.96,15.04,6.43,2.2,12.64,5.03,19.05,7.28,3,1.05,3.94,2.63,3.89,5.81-.7,39.58-1.23,79.16-1.87,118.74-.17,10.31-.58,20.62-.87,31.35-1.79.47-3.59.5-5.85.51Z"/>
      <path class="cls-16" d="M128.6,498.19v16.37h41.97c-3.93,4.63-7.01,8.38-10.25,11.99-.56.62-1.78.89-2.7.9-15.12.05-30.25.04-45.63.04v-49.1h16.62c0,6.39,0,12.85,0,19.8Z"/>
      <path class="cls-22" d="M100.37,422.14c-1.05-37.67-1.78-75.31-2.36-112.95-.21-13.45-.03-26.91-.03-40.78,2.45.8,4.11,1.34,6.17,1.96-4.07,2.3-4.62,6.02-4.55,10.66.36,25.26.2,50.52.6,75.78.32,20.41,1.16,40.82,1.81,61.22.04,1.14.4,2.27.79,3.78-.57.37-1.32.37-2.44.33Z"/>
      <path class="cls-25" d="M178.67,575.84c.33.25.33.73.34.97-16.09.11-32.19-.03-48.63-.38.23-.53.8-1.1,1.36-1.09,15.53.05,31.06.16,46.92.51Z"/>
      <path class="cls-25" d="M704.66,575.95c-3.65.51-7.59.91-11.53.92-11.14.02-22.27-.13-33.74-.44.23-.53.8-1.1,1.37-1.09,14.54.07,29.07.2,43.91.61Z"/>
      <path class="cls-25" d="M653.19,576.82c-.28-.05-.22-.41-.23-.6.57-.26,1.15-.34,1.86-.21-.37.43-.86.64-1.63.8Z"/>
      <path class="cls-23" d="M458.8,259c-14.38,15.29-28.53,30.31-42.69,45.32-5.01,5.31-7.26,5.34-12.36.32-4.62-4.56-9.33-9.03-13.87-13.67-6.31-6.42-6.2-11.41.22-17.47,22.51-21.24,45.01-42.49,67.52-63.73,5.41-5.11,7.04-5.1,12.46.18,4.29,4.18,8.56,8.37,12.75,12.65,3.88,3.96,3.95,6.76.22,10.74-7.97,8.49-16.01,16.92-24.25,25.64Z"/>
      <path class="cls-28" d="M345.9,229.83c-2.01-3.56-1.25-6.36,1.27-8.86,5.09-5.02,10.16-10.06,15.27-15.06,2.65-2.59,5.8-2.99,8.47-.49,13.83,12.91,27.51,25.99,41.67,39.41-9.39,8.93-18.5,17.59-27.93,26.55-12.97-13.89-25.75-27.57-38.76-41.55Z"/>
      <path class="cls-35" d="M537.63,385.47q4.35.64,3.71,6.7h-26.47c-1.51,8.99-.71,9.96,7.56,9.97,8.64,0,17.28,0,26.29,0v6.6c-1.62.07-3.37.21-5.11.22-7.99.03-15.99.12-23.98-.01-9.45-.15-13.27-4.08-13.33-13.41-.03-3.83-.08-7.66,0-11.49.13-6.72,3.56-10.97,10.16-11.21,10.62-.39,21.26-.11,32.26-.11v6.6c-9.62,0-19.39.03-29.16-.01-3.97-.02-5.97,1.47-4.84,6.17,7.52,0,14.98,0,22.91,0Z"/>
      <path class="cls-43" d="M431.86,383c0-3.6,0-6.73,0-10.12h7.46v35.74h-7.42v-16.06h-27.32v16.11h-7.54v-35.76h7.34v12.53c8.89,0,17.32.04,25.75-.08.58,0,1.14-1.22,1.72-2.35Z"/>
      <path class="cls-35" d="M312.79,387.25c-.02,6.99-.04,13.49-.07,19.99,0,.31-.18.63-.39,1.32h-7.12v-29.01h-17.58v-6.59h42.06v6.15h-16.9c0,2.83,0,5.24,0,8.14Z"/>
      <path class="cls-21" d="M429.18,199.98c-8.6-6.57-16.92-12.92-25.28-19.29,6.32-5.56,16.98-5.54,24.97-.11,8.49,5.78,12.13,16.26,8.66,25.5-2.73-1.99-5.4-3.93-8.35-6.1Z"/>
      <path class="cls-21" d="M443.55,316.59c-4.02-2.53-7.8-4.79-11.31-6.9,5.06-4.86,11-10.56,16.01-15.37,4.15,5.19,8.9,11.13,14.04,17.56-3.94,3.21-8.26,6.74-12.58,10.26.02.67.04,1.34.06,2.01-1.99-2.43-3.98-4.87-6.22-7.56Z"/>
      <path class="cls-21" d="M390.44,314.5c-2.96,3.19-5.66,6.13-8.14,8.84-4.52-4.3-8.46-8.06-12.73-12.13,2.94-2.87,5.92-5.3,8.28-8.22,2.33-2.89,4.02-6.29,5.86-9.25,5.22,5.3,10.91,11.07,16.13,16.38-2.56,1.16-5.84,2.65-9.39,4.38Z"/>
      <path class="cls-21" d="M422.49,221.93c-18.56,3.34-31.1-8.08-29.25-27.27,11.3,8.45,22.19,16.58,33.53,25.06-1.68.89-2.8,1.48-4.28,2.21Z"/>
      <path class="cls-46" d="M466.07,339.06c-1.25-1.32-2.25-2.39-3.51-3.75,4.19-3.81,8.21-7.46,12.88-11.71,3.08,3.23,7.02,6.93,10.35,11.12.97,1.22.88,4.23.03,5.71-1.36,2.37-3.46,4.71-5.83,5.96-1.71.91-4.85.81-6.5-.22-2.75-1.71-4.81-4.52-7.41-7.11Z"/>
      <path class="cls-46" d="M356.32,324.43c1.33-.22,2.78-.61,3.43-.06,3.67,3.09,7.15,6.41,11.13,10.06-4.07,3.86-7.46,7.03-10.79,10.26-2.76,2.68-5.49,2.76-8.27.1-1.32-1.26-2.59-2.58-3.88-3.86-2.76-2.73-2.81-5.42,0-8.17,2.73-2.66,5.41-5.37,8.36-8.32Z"/>
      <path class="cls-35" d="M398.27,184.82c12.56,8.77,24.84,17.75,37.37,26.91-1.33,1.73-2.31,3-3.62,4.71-8.55-6.43-16.85-12.66-25.14-18.91-2.78-2.1-5.42-4.41-8.34-6.3-3.08-1.99-3.14-3.9-.27-6.42Z"/>
      <path class="cls-35" d="M429.36,296.55c5.66-5.99,11.06-11.73,16.71-17.75,1.65,8.26-17.97,29.68-27.07,29.1,3.64-4.01,6.87-7.56,10.35-11.36Z"/>
      <path class="cls-43" d="M469.67,321.02c-3.76,3.46-7.28,6.68-11.22,10.31-.98-.94-2.46-2.34-4.3-4.09,4.35-3.93,8.45-7.64,13.2-11.92.7,1.48,1.64,3.48,2.33,5.71Z"/>
      <path class="cls-36" d="M373.89,322.26c1.74,1.31,3.23,2.37,5.12,3.71-2.39,2.41-3.85,3.89-4.93,4.97-4.23-4.16-8.08-7.94-12.36-12.15,1.49-1.07,3.07-2.21,5.31-3.82,1.94,2.07,4.28,4.56,6.86,7.3Z"/>
      <path class="cls-39" d="M483.97,766.9c.07.39-.04.79-.37,1.08-.6.51-.71.8-.66,1.15,0,0,.04.06-.33.08-1.13,1.67-1.89,3.32-2.64,4.97,0,0,.02.01,0,0-1.11.85-2.44,1.53-3.28,2.59-25.75,32.61-70.51,39.49-104.35,15.52-18.89-13.38-29.63-31.78-31.51-55.2-2.28-28.43,8.54-50.87,30.78-68.01,25.43-19.59,63.95-19.39,89.79.15,18.39,13.91,28.55,32.33,30.69,55.34,1.25,13.45-1.73,25.99-6.91,38.21-.51,1.21-.87,2.49-1.23,4.13M381.48,789.06c8.36,9.78,30.04,13.98,37.9,9.06-2.55-3.4-5.43-7.24-8.56-11.84-.52-.35-1.08-1.06-1.57-1.01-9.08.96-18.05.86-26.99-2.93-.31,2.42-.54,4.19-.78,6.71M455.65,758.5c-2.07-2.84-4.3-3.02-7.54-1.44-3.81,1.86-7.98,3.51-12.14,4.02-8.09.99-13.97,3.94-16.38,12.41-.77,2.72-2.99,5.12-4.87,7.4-2.15,2.62-1.98,4.66,1.07,7.18,3.83,2.41,7.69,6.91,11.48,6.85,14.61-.23,27.19-5.45,34.72-19.18,3.66-6.66,3.63-7.39-1.63-12.59-1.4-1.38-2.9-2.67-4.71-4.65M458.11,756.89c4.09,2.24,5.51,10.29,11.78,7.06,4.28-2.21,8.33-6.42,10.54-10.73,4.67-9.09,5.32-19.09,3.06-29.16-1.4-6.22-5.9-9.83-10.95-12.9-.57-.34-1.74.31-3.26.84-3.81,3.66-7.75,7.2-11.37,11.04-1.13,1.2-1.91,3.18-2.01,4.85-.45,7.08-.08,14.24-1.04,21.23-.49,3.57-.02,5.6,3.25,7.78M385.81,687.15c-4.63,5.44-9.4,10.77-13.79,16.4-1.16,1.49-1.98,4.16-1.48,5.85,1.92,6.5,4.42,12.83,6.75,19.21,1.21,3.32,3.5,4.84,7.18,4.87,3.64.03,7.36.39,10.91,1.21,7.77,1.78,13.91.33,17.95-7.22,3.19-5.95,11.57-9.56,10.8-16.8-.73-6.84-4.75-13.35-7.43-19.96-.4-1-1.18-2.29-2.06-2.58-9.25-3.06-18.62-4.82-28.83-.97M368.42,758.85c2.77,4.53,5.44,9.12,8.32,13.58,7.37,11.42,18.97,11.27,30.34,10.15,7.98-.79,8.69-9.01,11.96-14.46.6-.99,1.42-2.05,1.48-3.12.11-1.76.22-3.87-.6-5.29-3.76-6.45-7.77-12.76-11.87-19-.77-1.16-2.33-2.35-3.65-2.52-7.43-.9-14.89-1.53-22.34-2.17-1.1-.09-2.76-.21-3.26.41-5.19,6.4-10.64,12.73-10.37,22.41M468.36,708.12c-.18-2.13-.01-4.37-.62-6.37-2.25-7.43-3.9-15.78-10.96-19.97-6.13-3.63-13.41-5.37-20.3-7.6-1.46-.47-3.82-.03-5.04.93-3.9,3.06-7.64,6.39-11.02,10.01-1,1.07-1.23,3.67-.71,5.19,2.18,6.41,4.63,12.75,7.31,18.97.67,1.56,2.38,3.07,3.97,3.75,6.67,2.87,13.45,5.5,20.26,8.01,1.27.47,3.42.58,4.27-.17,4.34-3.8,8.39-7.94,12.83-12.74M420.01,754.71c2.2,2.93,3.57,7.1,8.69,5.46,6.46-2.08,13.03-3.87,19.38-6.24,1.64-.61,3.62-2.83,3.77-4.47.67-7.41.86-14.87.92-22.32,0-1.09-1.37-2.72-2.5-3.21-6.85-2.94-13.76-5.73-20.77-8.26-1.09-.4-3.28.37-4.09,1.33-5.45,6.48-10.67,13.16-16.29,20.18,3.49,5.64,6.98,11.28,10.87,17.53M373.12,738.68c1.3-1.67,2.6-3.34,3.27-4.19-3.42-8.92-6.53-17.04-9.81-25.58-2.67.77-5.5,1.63-8.35,2.4-5.64,1.51-8.88,5.07-9.02,10.98-.13,5.14-.38,10.34.18,15.43.8,7.34,8.41,14.16,15.83,15.14,2.53-4.58,5.01-9.06,7.9-14.16M397.57,665.11c-10.12,3.02-11.11,8.82-8.3,16.17,8.42,1.19,16.22,2.35,24.04,3.32,1.41.17,3.55.05,4.29-.83,3.83-4.6,7.32-9.48,11.14-14.55-7.08-7.95-18.14-8.98-31.15-4.11M374.6,674.24c-10.67,7.9-18.49,18.03-23.31,30.38-.75,1.92-.51,4.24-.73,6.46,5.23-1.68,9.65-2.96,13.95-4.57,1.56-.58,3.07-1.75,4.17-3.02,5.17-6.02,10.21-12.15,15.26-18.28.79-.96,1.91-2.06,1.98-3.15.24-4.05.09-8.12.09-13.99-4.41,2.33-7.62,4.02-11.4,6.16M373.06,772.58c-2.45-4.5-4.87-9.02-7.38-13.49-.68-1.21-1.45-2.58-2.55-3.31-4.65-3.07-9.43-5.93-14.03-8.78-3.1,8.57,17.89,38.71,29.17,41.03,2.84-5.49.95-9.77-3.5-13.35-.51-.41-.85-1.02-1.72-2.1M468.35,694.41c.87,3.35,1.73,6.69,2.62,10.04.28,1.06.29,2.53,1,3.1,3.79,3.03,7.76,5.83,11.84,8.84.05-.63.26-1.41.15-2.13-1.82-12.25-8.02-22.28-16.25-31.16-.86-.93-3.04-.64-5.3-1.04,2.22,4.55,3.95,8.09,5.95,12.36M434.41,670.7c7.75,2.76,15.49,5.55,23.26,8.24,1.61.56,3.37.71,5.06,1.05-7.91-10.43-27.38-18.95-40.6-19.15,3.7,3,7.67,6.22,12.29,9.86M463.34,778.89c-.66.99-1.33,1.98-1.99,2.97l1.02.8c5.91-5.32,10.78-11.5,14.55-18.61-5.67,2.2-10.74,4.9-11.76,11.63-.14.92-.92,1.74-1.82,3.21M477.52,762.58l-.16.34s.33-.07.16-.34Z"/>
      <path class="cls-13" d="M411.19,619.57c8.11,0,15.75,0,23.74,0v6.42c-9.73,0-19.47.25-29.2-.11-4.83-.18-8.45-4.48-8.63-9.43-.21-5.48-.2-10.98-.03-16.47.18-5.41,4.06-9.58,9.46-9.72,9.44-.25,18.89-.07,28.54-.07v6.46c-8.41,0-16.82.05-25.22-.02-4.11-.04-6.49,1.29-5.39,6.44h23.85v6.48h-23.5c-1.61,8.5-.84,9.69,6.38,10.01Z"/>
      <path class="cls-13" d="M337.03,624.76c-4.84,2.48-6.83,1.99-9-1.96-1.12-2.04-2.16-4.11-3.26-6.16-3.77-7.01-5.88-7.95-14.41-6.18v15.44h-6.91v-35.36c8.94,0,18.01-.47,26.99.2,4.43.33,7.04,4.17,7.26,8.88.22,4.7-2.42,7.8-8.67,10.08,2.66,4.94,5.29,9.83,8,15.05M325.83,596.54h-15.24v6.68c5.34,0,10.31.22,15.25-.12,1.64-.11,3.19-1.65,4.78-2.53-1.31-1.33-2.62-2.66-4.79-4.03Z"/>
      <path class="cls-36" d="M514.4,612.74c-4.04-2.92-7.8-5.61-12.3-8.83v22.01h-6.82v-35.46c10.27,7.42,20.13,14.54,30.63,22.12v-22.1h6.86v35.53c-6.35-4.58-12.22-8.81-18.37-13.28Z"/>
      <path class="cls-31" d="M242.56,619.54c1.15,2.22,2.1,4.13,3.07,6.09-5.06,1.55-8.25.47-10.39-4.56-2.31-5.43-5.57-10.46-8.77-16.29-3.12,5.76-6.25,10.7-8.54,16-2.1,4.83-5.15,6.49-10.71,4.86,6.29-11.68,12.55-23.28,19.26-35.74,5.54,10.25,10.71,19.79,16.07,29.65Z"/>
      <path class="cls-31" d="M626.31,620.05c1.03,1.95,1.81,3.68,2.76,5.78-1.31.16-2.33.28-3.73.48-2.11-1.09-4.47-1.88-5.46-3.51-3.45-5.62-6.43-11.53-10-18.07-3.22,5.96-6.44,11.11-8.86,16.61-2.12,4.81-5.27,5.75-10.38,4.21,6.33-11.72,12.57-23.28,19.25-35.66,5.66,10.48,10.92,20.2,16.42,30.15Z"/>
      <path class="cls-47" d="M389.78,88.93c-.67-2.38-.86-4.94-2.24-6.22-8.29-7.7-16.86-15.1-26.11-23.28,3.54-.41,6.36-.79,9.19-1.05,8.79-.82,17.59-1.43,26.34-2.53,1.67-.21,3.82-1.9,4.53-3.46,4.78-10.4,9.24-20.94,14.25-32.49,3.51,7.93,7.62,14.74,9.55,22.12,3.03,11.63,10.07,15.5,21.39,15.25,7.54-.17,15.12,1.26,23.61,2.05-9.22,8.16-17.69,15.8-26.36,23.23-2.36,2.02-2.81,3.83-2.08,6.84,2.64,10.79,4.89,21.68,7.57,33.82-7.53-4.39-14.55-7.51-20.4-12.11-9.12-7.18-17.13-7.5-26.32-.09-5.74,4.63-12.73,7.7-20.47,12.23,2.68-12.15,5.07-23.04,7.54-34.34Z"/>
      <path class="cls-27" d="M215.59,227.15c-1.56,1.35-3.36,3.11-5.53,3.93-3.3,1.25-6.8,2.07-10.29,2.64-3.1.51-6.3.42-9.86.44,8.16-2.45,16.71-4.73,25.68-7.01Z"/>
      <path class="cls-18" d="M663.97,240.77c-5.21-.7-10.59-1.67-15.92-2.84-.76-.17-1.31-1.32-2.01-2.4,5.89,1.38,11.83,3.14,17.92,5.23Z"/>
      <path class="cls-27" d="M188.6,234.18c-2.4,4.63-6.93,4.08-11.81,3.87,3.48-1.33,7.45-2.6,11.81-3.87Z"/>
      <path class="cls-18" d="M669.9,242.67c-2.65,3.69-4.12,3.41-5.84-1.22,1.91.03,3.8.45,5.84,1.22Z"/>
      <path class="cls-27" d="M175.62,237.89c-1.54,3.8-5.16,2.98-8.88,3.12,2.51-1.09,5.49-2.1,8.88-3.12Z"/>
      <path class="cls-27" d="M218.04,226.95c-.29.22-.55.19-1.2.12-.08-.29.24-.54.86-.81.31-.03.37.45.34.68Z"/>
      <path class="cls-22" d="M106.37,270.22c1.33-1.26,2.89-2.98,4.81-3.67,3.64-1.3,7.49-2,11.51-2.7-5.14,2.29-10.54,4.33-16.33,6.37Z"/>
      <path class="cls-10" d="M480.3,774.07c.43-1.55,1.18-3.2,2.29-4.89-.42,1.57-1.19,3.18-2.29,4.89Z"/>
      <path class="cls-10" d="M483.2,769.07c-.3-.3-.19-.58.3-.91.13.22.05.54-.3.91Z"/>
      <path class="cls-6" d="M386.11,686.89c9.91-3.6,19.27-1.84,28.53,1.22.89.29,1.66,1.58,2.06,2.58,2.67,6.61,6.7,13.12,7.43,19.96.77,7.25-7.61,10.85-10.8,16.8-4.04,7.54-10.17,8.99-17.95,7.22-3.55-.81-7.26-1.17-10.91-1.21-3.68-.03-5.97-1.55-7.18-4.87-2.33-6.38-4.83-12.71-6.75-19.21-.5-1.69.32-4.36,1.48-5.85,4.39-5.63,9.16-10.96,14.09-16.65Z"/>
      <path class="cls-20" d="M368.26,758.48c-.11-9.32,5.35-15.65,10.53-22.05.5-.62,2.17-.5,3.26-.41,7.46.64,14.92,1.26,22.34,2.17,1.32.16,2.88,1.35,3.65,2.52,4.11,6.24,8.12,12.55,11.87,19,.83,1.42.71,3.53.6,5.29-.07,1.07-.88,2.12-1.48,3.12-3.28,5.45-3.99,13.68-11.96,14.46-11.37,1.12-22.97,1.26-30.34-10.15-2.88-4.46-5.55-9.05-8.48-13.94Z"/>
      <path class="cls-20" d="M468.21,708.51c-4.3,4.41-8.34,8.55-12.69,12.35-.85.74-3,.64-4.27.17-6.82-2.51-13.59-5.14-20.26-8.01-1.59-.69-3.3-2.2-3.97-3.75-2.68-6.22-5.13-12.55-7.31-18.97-.52-1.52-.28-4.12.71-5.19,3.38-3.62,7.12-6.94,11.02-10.01,1.21-.95,3.57-1.4,5.04-.93,6.88,2.24,14.17,3.97,20.3,7.6,7.06,4.19,8.71,12.54,10.96,19.97.61,2,.43,4.24.47,6.76Z"/>
      <path class="cls-20" d="M419.8,754.4c-3.69-5.94-7.18-11.58-10.67-17.22,5.61-7.01,10.83-13.69,16.29-20.18.81-.96,2.99-1.73,4.09-1.33,7.01,2.53,13.92,5.32,20.77,8.26,1.12.48,2.51,2.11,2.5,3.21-.06,7.45-.24,14.91-.92,22.32-.15,1.64-2.13,3.86-3.77,4.47-6.35,2.37-12.92,4.16-19.38,6.24-5.12,1.65-6.49-2.53-8.89-5.76Z"/>
      <path class="cls-37" d="M372.91,738.99c-2.69,4.79-5.17,9.28-7.69,13.85-7.42-.98-15.03-7.79-15.83-15.14-.56-5.09-.3-10.28-.18-15.43.14-5.91,3.38-9.47,9.02-10.98,2.85-.77,5.68-1.63,8.35-2.4,3.28,8.54,6.39,16.66,9.81,25.58-.66.85-1.97,2.52-3.48,4.5Z"/>
      <path class="cls-7" d="M469.91,711.66c.89-.19,2.06-.85,2.63-.5,5.05,3.07,9.55,6.68,10.95,12.9,2.26,10.07,1.61,20.07-3.06,29.16-2.22,4.31-6.27,8.53-10.54,10.73-6.26,3.23-7.68-4.81-11.59-7.53,9.31-13.86,12.48-28.79,11.61-44.76Z"/>
      <path class="cls-7" d="M456.01,759.16c1.45,1.33,2.95,2.62,4.36,4,5.27,5.21,5.29,5.93,1.63,12.59-7.53,13.73-20.11,18.95-34.72,19.18-3.79.06-7.65-4.44-11.22-7.24,8.55-4.36,17.43-7.46,24.94-12.58,5.89-4.02,10.07-10.54,15.01-15.95Z"/>
      <path class="cls-40" d="M397.95,664.99c12.64-4.76,23.7-3.72,30.78,4.22-3.82,5.07-7.3,9.96-11.14,14.55-.73.88-2.87,1-4.29.83-7.82-.97-15.61-2.13-24.04-3.32-2.81-7.35-1.82-13.15,8.68-16.29Z"/>
      <path class="cls-41" d="M374.88,674.02c3.5-1.92,6.71-3.62,11.12-5.94,0,5.87.14,9.94-.09,13.99-.06,1.09-1.18,2.19-1.98,3.15-5.05,6.13-10.08,12.26-15.26,18.28-1.1,1.27-2.61,2.44-4.17,3.02-4.3,1.61-8.72,2.89-13.95,4.57.23-2.22-.02-4.54.73-6.46,4.82-12.35,12.64-22.48,23.59-30.61Z"/>
      <path class="cls-37" d="M455.83,758.83c-4.76,5.73-8.95,12.25-14.84,16.27-7.5,5.12-16.39,8.22-25.1,12.27-3.15-1.82-3.33-3.86-1.17-6.48,1.88-2.28,4.1-4.68,4.87-7.4,2.41-8.47,8.28-11.42,16.38-12.41,4.16-.51,8.33-2.16,12.14-4.02,3.24-1.58,5.47-1.4,7.72,1.77Z"/>
      <path class="cls-3" d="M373.29,772.85c.64.8.98,1.41,1.49,1.82,4.44,3.58,6.34,7.86,3.5,13.35-11.28-2.32-32.27-32.46-29.17-41.03,4.59,2.85,9.38,5.7,14.03,8.78,1.1.73,1.87,2.1,2.55,3.31,2.51,4.47,4.93,8.99,7.61,13.77Z"/>
      <path class="cls-37" d="M469.6,711.82c1.19,15.8-1.98,30.73-11.42,44.28-3.34-1.4-3.81-3.43-3.32-6.99.96-6.99.59-14.16,1.04-21.23.11-1.67.88-3.64,2.01-4.85,3.62-3.84,7.55-7.38,11.68-11.21Z"/>
      <path class="cls-34" d="M411.07,787.04c2.88,3.84,5.77,7.69,8.31,11.08-7.86,4.91-29.55.72-37.46-9.43,7.36.25,14.27,1.21,21.2,1.3,2.64.04,5.3-1.91,7.95-2.95Z"/>
      <path class="cls-30" d="M468.21,694.05c-1.86-3.9-3.59-7.44-5.81-11.99,2.27.4,4.44.11,5.3,1.04,8.23,8.88,14.43,18.91,16.25,31.16.11.73-.1,1.5-.15,2.13-4.08-3.01-8.05-5.81-11.84-8.84-.71-.57-.71-2.03-1-3.1-.89-3.34-1.75-6.69-2.76-10.4Z"/>
      <path class="cls-19" d="M434.09,670.49c-4.29-3.43-8.26-6.65-11.96-9.65,13.22.2,32.7,8.72,40.6,19.15-1.69-.34-3.44-.49-5.06-1.05-7.77-2.69-15.51-5.48-23.59-8.45Z"/>
      <path class="cls-3" d="M410.95,786.66c-2.53,1.42-5.19,3.37-7.83,3.33-6.93-.1-13.84-1.05-21.19-1.67-.21-1.78.02-3.56.33-5.97,8.94,3.78,17.92,3.89,26.99,2.93.48-.05,1.04.65,1.69,1.39Z"/>
      <path class="cls-30" d="M463.55,778.59c.69-1.17,1.48-1.99,1.61-2.9,1.02-6.73,6.09-9.43,11.76-11.63-3.76,7.11-8.64,13.29-14.55,18.61l-1.02-.8c.66-.99,1.33-1.98,2.2-3.28Z"/>
      <path class="cls-30" d="M477.61,762.72c.08.14-.25.21-.25.21,0,0,.16-.34.25-.21Z"/>
      <path class="cls-45" d="M326.25,596.55c1.74,1.35,3.05,2.68,4.36,4.01-1.59.88-3.13,2.42-4.78,2.53-4.94.34-9.91.12-15.25.12v-6.68c5.06,0,10.15,0,15.67.02Z"/>
    </g>
  </g>
</svg>