<?xml version="1.0" encoding="UTF-8" standalone="no"?>
<!-- Generator: Adobe Illustrator 19.2.1, SVG Export Plug-In . SVG Version: 6.00 Build 0)  -->

<svg
   version="1.1"
   id="layer"
   x="0px"
   y="0px"
   viewBox="0 0 600 100.7"
   xml:space="preserve"
   width="600"
   height="100.7"
   xmlns="http://www.w3.org/2000/svg"
   xmlns:svg="http://www.w3.org/2000/svg"
   xmlns:rdf="http://www.w3.org/1999/02/22-rdf-syntax-ns#"
   xmlns:cc="http://creativecommons.org/ns#"
   xmlns:dc="http://purl.org/dc/elements/1.1/"><title
   id="title10170">Bashundhara Group</title><defs
   id="defs95" />
<style
   type="text/css"
   id="style2">
	.st0{fill:#ED1C24;}
	.st1{fill:#6D6E70;}
</style>











































<g
   id="g10115"
   transform="translate(-20.4,-271.2)"><g
     id="g10023"><polyline
       class="st0"
       points="20.4,271.3 60.9,293.3 20.5,317.3 60.8,342.1 20.5,363.4 60.8,363.4 100.8,341.7 63.9,317.4   101,292.9 61.4,271.4 20.4,271.3 "
       id="polyline4" /><path
       class="st1"
       d="m 106.4,311.7 30.4,0.1 L 108.6,297 77.5,317.5 108,338 146.3,317.3 h -34.7 c 0,0 0.5,11.9 -4.4,8.6 -0.8,-0.7 -1,-2.6 -1,-4.1 l 0.2,-10.1"
       id="path6" /></g><g
     id="g10067"><path
       class="st0"
       d="m 163.1,312.9 v -41.2 h 6.5 c 3.4,0 5.9,0.8 7.4,2.5 1.5,1.7 2.3,4.3 2.3,7.9 0,2.7 -0.4,4.9 -1.1,6.3 -0.8,1.5 -2,2.6 -3.6,3.2 1.9,0.5 3.2,1.5 4,3 0.8,1.5 1.3,3.6 1.3,6.4 0,4.1 -0.8,7.1 -2.4,9 -1.6,1.9 -4.1,2.9 -7.5,2.9 h -6.9 m 4.7,-23.6 h 1.7 c 1.7,0 3,-0.5 3.9,-1.5 0.8,-1 1.2,-2.6 1.2,-4.8 0,-2.3 -0.4,-3.9 -1.1,-4.9 -0.8,-1 -2.1,-1.4 -4,-1.4 h -1.7 z m 0,18.3 h 1.6 c 2.2,0 3.6,-0.5 4.4,-1.5 0.8,-1 1.2,-2.7 1.2,-5.2 0,-2.5 -0.4,-4.3 -1.3,-5.4 -0.9,-1.1 -2.3,-1.7 -4.3,-1.7 h -1.6 z"
       id="path8" /><path
       class="st0"
       d="m 185.7,312.9 8.2,-41.2 h 4.5 l 8.2,41.2 h -4.8 l -1.7,-8.1 h -8 l -1.6,8.1 h -4.8 m 10.5,-30.6 -3.2,17.9 h 6.3 z"
       id="path10" /><path
       class="st0"
       d="m 216.8,305.7 c 1.1,0.8 2.2,1.4 3.1,1.8 0.9,0.4 1.8,0.6 2.7,0.6 1.5,0 2.6,-0.5 3.5,-1.5 0.8,-1 1.3,-2.3 1.3,-4 0,-2.4 -1.6,-5.2 -4.9,-8.3 -0.4,-0.4 -0.7,-0.7 -0.9,-0.8 -2.1,-2 -3.5,-3.9 -4.4,-5.6 -0.8,-1.7 -1.3,-3.7 -1.3,-5.8 0,-3.1 0.8,-5.7 2.5,-7.8 1.7,-2.1 3.8,-3.1 6.3,-3.1 1.1,0 2.1,0.2 3.2,0.4 1,0.3 2,0.8 3,1.4 v 5.6 c -0.9,-0.8 -1.8,-1.3 -2.7,-1.7 -0.9,-0.4 -1.7,-0.5 -2.6,-0.5 -1.5,0 -2.7,0.5 -3.6,1.5 -0.9,1 -1.4,2.4 -1.4,4.1 0,2.4 1.7,5.2 5.2,8.4 0.3,0.3 0.6,0.5 0.7,0.7 2,1.9 3.4,3.7 4.3,5.5 0.8,1.8 1.3,3.7 1.3,6 0,3.2 -0.9,5.8 -2.6,7.8 -1.7,2 -3.9,3.1 -6.6,3.1 -1,0 -2,-0.2 -3,-0.5 -1,-0.3 -2,-0.9 -3.1,-1.6 v -5.7"
       id="path12" /><polyline
       class="st0"
       points="244.3,312.9 244.3,271.7 249,271.7 249,287.4 257.5,287.4 257.5,271.7 262.2,271.7 262.2,312.9   257.5,312.9 257.5,292.6 249,292.6 249,312.9 244.3,312.9 "
       id="polyline14" /><path
       class="st0"
       d="m 275.9,301.9 v -30.2 h 4.6 v 30.6 c 0,2 0.4,3.4 1.1,4.4 0.8,0.9 1.9,1.4 3.5,1.4 1.5,0 2.7,-0.5 3.4,-1.4 0.8,-0.9 1.1,-2.4 1.1,-4.4 v -30.6 h 4.7 v 30.2 c 0,4 -0.7,6.9 -2.2,8.7 -1.5,1.8 -3.8,2.8 -7,2.8 -3.2,0 -5.5,-0.9 -7,-2.8 -1.5,-1.8 -2.2,-4.7 -2.2,-8.7"
       id="path16" /><polyline
       class="st0"
       points="308,312.9 308,271.7 312.4,271.7 321.7,300.3 321.7,271.7 326.2,271.7 326.2,312.9 321.7,312.9   312.5,284.1 312.5,312.9 308,312.9 "
       id="polyline18" /><path
       class="st0"
       d="m 338.2,312.9 v -41.2 h 6.3 c 4.8,0 8.1,1.5 10,4.6 1.9,3.1 2.9,8.4 2.9,16 0,7.6 -1,12.9 -2.9,16 -1.9,3.1 -5.3,4.6 -10,4.6 h -6.3 m 4.8,-5.3 h 2.4 c 2.6,0 4.5,-1.1 5.6,-3.4 1.1,-2.3 1.6,-6.3 1.6,-12 0,-5.7 -0.5,-9.7 -1.6,-12 -1.1,-2.3 -2.9,-3.4 -5.6,-3.4 H 343 Z"
       id="path20" /><polyline
       class="st0"
       points="370.2,312.9 370.2,271.7 374.9,271.7 374.9,287.4 383.4,287.4 383.4,271.7 388.1,271.7 388.1,312.9   383.4,312.9 383.4,292.6 374.9,292.6 374.9,312.9 370.2,312.9 "
       id="polyline22" /><path
       class="st0"
       d="m 399.3,312.9 8.2,-41.2 h 4.4 l 8.2,41.2 h -4.8 l -1.7,-8.1 h -8 l -1.6,8.1 h -4.7 m 10.5,-30.6 -3.2,17.9 h 6.3 z"
       id="path24" /><path
       class="st0"
       d="m 436,292.8 v 20.1 h -4.7 v -41.2 h 5.7 c 3.8,0 6.5,0.8 8.1,2.5 1.6,1.7 2.4,4.4 2.4,8.3 0,3 -0.6,5.4 -1.7,7.1 -1.1,1.7 -2.8,2.7 -5,3 l 8.4,20.3 h -5.1 L 436,292.8 v 0 m 0,-3.2 h 1.5 c 1.9,0 3.3,-0.5 4.1,-1.6 0.8,-1.1 1.2,-2.9 1.2,-5.6 0,-2.2 -0.4,-3.7 -1.1,-4.6 -0.8,-0.9 -2.2,-1.3 -4.3,-1.3 H 436 Z"
       id="path26" /><path
       class="st0"
       d="m 457.6,312.9 8.2,-41.2 h 4.5 l 8.2,41.2 h -4.8 l -1.7,-8.1 h -8 l -1.6,8.1 h -4.8 m 10.5,-30.6 -3.2,17.9 h 6.3 z"
       id="path28" /><path
       class="st0"
       d="m 515.6,290.8 c 0.1,0.9 0.1,1.7 0.1,2.5 0,0.8 0,1.6 0,2.4 0,6 -0.9,10.4 -2.6,13.3 -1.7,2.9 -4.4,4.3 -8,4.3 -3.7,0 -6.4,-1.6 -8.1,-4.9 -1.7,-3.3 -2.5,-8.6 -2.5,-16.1 0,-7.6 0.8,-13 2.5,-16.2 1.7,-3.2 4.4,-4.9 8.2,-4.9 2.7,0 4.9,0.7 6.5,2.2 1.6,1.4 2.8,3.6 3.4,6.5 l -4.3,2.4 c -0.3,-2 -1,-3.5 -1.9,-4.5 -0.9,-1 -2.1,-1.5 -3.6,-1.5 -2.1,0 -3.6,1.1 -4.5,3.4 -0.9,2.3 -1.3,6.4 -1.3,12.4 0,5.9 0.4,10.1 1.3,12.4 0.9,2.3 2.4,3.5 4.5,3.5 1.9,0 3.3,-0.9 4.3,-2.7 1,-1.8 1.4,-4.4 1.4,-7.9 0,-0.5 0,-0.9 0,-1.2 0,-0.3 0,-0.5 0,-0.7 h -5.2 v -4.8 h 9.8"
       id="path30" /><path
       class="st0"
       d="m 527.8,292.8 v 20 h -4.9 v -41 h 6 c 3.9,0 6.7,0.8 8.4,2.5 1.7,1.6 2.5,4.4 2.5,8.2 0,3.1 -0.6,5.4 -1.7,7.1 -1.1,1.7 -2.9,2.7 -5.1,3 l 8.6,20.2 h -5.3 l -8.2,-20 h -0.3 m 0,-3.2 h 1.6 c 2,0 3.4,-0.5 4.2,-1.6 0.8,-1 1.2,-2.9 1.2,-5.6 0,-2.2 -0.4,-3.8 -1.2,-4.6 -0.8,-0.9 -2.2,-1.3 -4.4,-1.3 h -1.4 z"
       id="path32" /><path
       class="st0"
       d="m 548.6,292.3 c 0,-7.5 0.8,-12.9 2.4,-16.2 1.6,-3.3 4.3,-4.9 7.9,-4.9 3.6,0 6.3,1.6 7.9,4.9 1.6,3.3 2.4,8.6 2.4,16.2 0,7.5 -0.8,12.9 -2.4,16.1 -1.6,3.2 -4.2,4.9 -7.9,4.9 -3.7,0 -6.3,-1.6 -7.9,-4.9 -1.6,-3.2 -2.4,-8.6 -2.4,-16.1 m 5,-0.1 c 0,5.8 0.4,9.9 1.3,12.3 0.8,2.4 2.2,3.6 4.2,3.6 1.9,0 3.3,-1.1 4.1,-3.4 0.8,-2.3 1.2,-6.4 1.2,-12.5 0,-5.9 -0.4,-10 -1.2,-12.3 -0.8,-2.3 -2.2,-3.5 -4.1,-3.5 -1.9,0 -3.3,1.2 -4.2,3.5 -0.9,2.3 -1.3,6.4 -1.3,12.3"
       id="path34" /><path
       class="st0"
       d="m 576.4,301.9 v -30.1 h 4.8 v 30.6 c 0,2 0.4,3.4 1.2,4.4 0.8,0.9 2,1.4 3.6,1.4 1.6,0 2.8,-0.5 3.6,-1.4 0.8,-0.9 1.2,-2.4 1.2,-4.4 v -30.6 h 4.9 v 30.1 c 0,4 -0.8,6.9 -2.3,8.7 -1.5,1.8 -4,2.7 -7.3,2.7 -3.3,0 -5.8,-0.9 -7.3,-2.7 -1.7,-1.9 -2.4,-4.8 -2.4,-8.7"
       id="path36" /><path
       class="st0"
       d="m 602.6,312.8 v -41 h 6 c 2.2,0 3.9,0.2 5.2,0.5 1.3,0.4 2.3,0.9 3.2,1.8 1.1,1 1.9,2.3 2.5,3.9 0.6,1.6 0.9,3.4 0.9,5.4 0,3.7 -1,6.6 -2.9,8.5 -1.9,1.9 -4.7,2.9 -8.5,2.9 -0.4,0 -0.7,0 -0.9,0 -0.2,0 -0.4,0 -0.5,-0.1 v 18.1 h -5 m 4.9,-23 h 1.8 c 2.2,0 3.8,-0.5 4.7,-1.6 0.9,-1 1.4,-2.7 1.4,-5.1 0,-2.3 -0.5,-3.9 -1.5,-5 -1,-1 -2.7,-1.5 -5,-1.5 h -1.5 v 13.2 z"
       id="path38" /><path
       class="st1"
       d="m 180.2,347.1 -0.7,-0.1 c 0,-0.5 0.1,-1 0.1,-1.5 0,-2.2 -1.3,-2.7 -6.4,-2.7 -2.2,0 -2.6,0.1 -2.8,0.9 L 168,352 c 5.9,-0.1 5.9,-0.1 7.5,-3.3 l 0.6,0.2 -2.6,8.2 -0.6,-0.2 c 0.1,-0.5 0.3,-1.3 0.3,-2 0,-1.5 -1.2,-1.6 -1.8,-1.6 -1.7,0 -3.1,-0.1 -3.8,-0.1 l -2.2,7.8 c -0.2,0.8 -0.3,1.2 -0.3,1.6 0,1.4 1.5,1.5 2.7,1.5 v 0.6 H 159 v -0.6 c 1.8,-0.3 2.2,-0.4 2.9,-2.6 l 4.3,-15.5 c 0.1,-0.5 0.4,-1.5 0.4,-2.2 0,-1.3 -0.9,-1.4 -2.7,-1.5 v -0.6 h 17.4 l -1.1,5.4"
       id="path40" /><path
       class="st1"
       d="m 187.7,349.9 c 1.7,0 2.5,1.6 2.5,3.4 0,3.8 -2.8,11 -6.7,11 -1.7,0 -2.8,-1.3 -2.8,-3.3 0,-4.1 3.1,-11.1 7,-11.1 m 0.3,-0.7 c -5.1,0 -10.3,5.6 -10.3,10.8 0,2.9 1.6,5.1 5.3,5.1 5.3,0 10.1,-6.4 10.1,-10.7 0,-2.3 -1.1,-5.2 -5.1,-5.2"
       id="path42" /><path
       class="st1"
       d="m 196.1,364.7 2.8,-10.3 c 0.4,-1.3 0.6,-2.5 0.6,-2.8 0,-0.5 -0.2,-1 -1.3,-1 -0.4,0 -0.8,0.1 -1.2,0.2 v -0.6 c 1.8,-0.3 3.8,-0.7 5.4,-1 l 0.1,0.1 -1.7,7 0.1,0.1 0.3,-0.7 c 1.2,-2.3 3.8,-6.4 6,-6.4 0.8,0 1.7,0.5 1.7,1.7 0,1.8 -1.3,1.8 -1.6,1.8 -1.5,0 -1,-1.3 -1.8,-1.3 -1.1,0 -3.2,3.9 -3.4,4.4 -1.3,2.5 -1.8,4.1 -3.2,8.8 h -2.8"
       id="path44" /><path
       class="st1"
       d="m 227.7,350.8 h -2.9 l -3.1,11.7 v 0.3 c 0,0.3 0.2,0.6 0.6,0.6 0.7,0 1.9,-1.6 2.8,-2.8 l 0.5,0.2 c -1.8,2.7 -3.1,4.2 -5,4.2 -0.7,0 -1.7,-0.4 -1.7,-1.4 0,-0.5 0.7,-2.7 0.8,-3.2 l 2.5,-9.7 h -2.6 c 0,-0.2 0,-0.4 0.1,-0.6 0.2,-0.3 1.2,-0.6 1.8,-0.9 1.1,-0.6 2.8,-2.2 3.8,-3.4 0.1,-0.2 0.3,-0.5 0.6,-0.4 0.3,-0.1 0.3,0.3 0.3,0.5 l -1,3.6 h 2.8 l -0.3,1.3"
       id="path46" /><path
       class="st1"
       d="m 244.3,361 c -1.3,1.8 -2.7,4 -5.1,4 -1.1,0 -1.6,-0.7 -1.6,-1.6 0,-0.9 2.9,-11 2.9,-11.4 0,-0.6 -0.5,-0.9 -1,-0.9 -1.7,0 -4.7,4 -5.4,4.9 -1.6,2.4 -2.1,4.3 -3.2,8.7 h -2.6 l 4.6,-17.6 c 0.4,-1.5 0.9,-3.5 0.9,-4 0,-0.4 -0.3,-0.9 -1.4,-0.9 h -0.9 v -0.6 c 1.8,-0.2 3.7,-0.5 5.5,-0.9 l 0.2,0.2 -4.1,15.4 0.1,0.1 c 1.1,-1.8 4.6,-7.2 7.8,-7.2 0.8,0 2.4,0.2 2.4,2.5 0,1.2 -2.8,10.2 -2.8,11 0,0.4 0.3,0.7 0.6,0.7 0.7,0 1.5,-1.1 2.9,-2.8 l 0.2,0.4"
       id="path48" /><path
       class="st1"
       d="m 250.7,355.9 c 1.3,-3.1 3.7,-5.8 5.6,-5.8 0.9,0 1.2,0.7 1.2,1.4 0,0.3 -0.2,4.5 -7.4,6 l 0.6,-1.6 m 7.2,5 c -1.8,1.4 -3.2,2.6 -5.1,2.6 -1.5,0 -3.3,-0.8 -3.3,-3.2 0,-0.7 0.2,-1.4 0.4,-2.2 l 1,-0.1 c 5.7,-0.8 8.9,-3.7 8.9,-6.4 0,-1.5 -1.1,-2.4 -2.9,-2.4 -4.9,0 -10.4,5.9 -10.4,10.9 0,2.2 1.1,4.9 4.8,4.9 3.5,0 6.7,-3.2 7,-3.8 z"
       id="path50" /><path
       class="st1"
       d="m 281.9,343.9 c 0.1,-0.7 0.3,-1.5 1.7,-1.5 3,0 3,2.6 3,3.4 0,1 -0.4,3.6 -1.5,5.1 -0.6,0.8 -1.4,1.6 -4,1.6 -0.5,0 -0.8,0 -1.3,-0.1 l 2.1,-8.5 m -7.6,-1.8 c 2.2,0.3 2.5,0.4 2.5,1.5 0,0.5 -0.3,1.7 -0.3,2 l -4.3,15.8 c -0.6,2.2 -1.4,2.3 -2.8,2.5 v 0.9 h 10.2 v -0.9 c -1.8,-0.1 -2.5,-0.3 -2.5,-1.5 0,-0.2 0.2,-1.3 0.3,-1.9 l 1.9,-7 c 1.3,0.1 1.8,0.2 3.2,0.2 4.7,0 9.1,-2.4 9.1,-6.9 0,-4.4 -3.7,-5.5 -7.4,-5.5 h -10 v 0.8 z"
       id="path52" /><path
       class="st1"
       d="m 299.9,349.6 c 1,0 1,0.9 1,1.2 0,1.8 -0.9,5.1 -5.5,6.4 0.6,-2.6 2.3,-7.6 4.5,-7.6 m 1.4,10.1 c -0.9,1.3 -2.1,3.2 -4,3.2 -0.7,0 -2.3,-0.1 -2.3,-2.9 0,-0.7 0.1,-1.1 0.2,-1.7 6.7,-1 9,-4.7 9,-6.7 0,-2.5 -2.4,-3.2 -3.6,-3.2 -5.7,0 -10.1,6.5 -10.1,11.3 0,3.9 2.9,5.4 5.3,5.4 3.8,0 5.6,-3.1 6.7,-4.8 z"
       id="path54" /><path
       class="st1"
       d="m 315.6,349.5 c 0.9,0 1.7,0.5 1.7,2.2 0,2.6 -2,12.4 -5.4,12.4 -1.8,0 -1.8,-1.8 -1.8,-2.5 0,-2.2 1.8,-12.1 5.5,-12.1 m 0.4,-1 c -5.5,0 -10,6 -10,11.5 0,3.4 2.7,5.2 5.6,5.2 5.6,0 9.9,-6 9.9,-11.3 0,-4.7 -4.2,-5.4 -5.5,-5.4"
       id="path56" /><path
       class="st1"
       d="m 335.1,352.8 c 0,2.5 -2.5,11.2 -5.9,11.2 -0.5,0 -1.4,-0.2 -1.4,-1.4 0,-0.9 1.7,-7 2.6,-8.7 0.6,-1.3 2,-2.9 3.3,-2.9 0.7,0 1.4,0.6 1.4,1.8 m -10.4,-2.4 c 1.3,0 1.9,0.1 1.9,0.9 0,0.8 -2.2,8.9 -4.4,17.4 -0.6,2.2 -1.3,2.2 -2.5,2.2 v 1 h 8.7 v -1 c -1.2,0 -2.3,-0.1 -2.3,-1.2 0,-0.8 1,-4.2 1.3,-5.4 1.1,0.6 1.5,0.8 2.4,0.8 4.9,0 9.6,-6.8 9.6,-12.3 0,-3.2 -1.8,-4.4 -3.9,-4.4 -1.5,0 -3.4,0.9 -5.2,3.7 l -0.1,-0.1 1.2,-3.6 c -2.5,0.5 -3.8,0.6 -6.7,1 z"
       id="path58" /><path
       class="st1"
       d="m 350,360.2 c -1.5,2.4 -3.1,4.8 -5.9,4.8 -2.4,0 -2.4,-1.9 -2.4,-2.3 0,-2.1 5,-17.8 5,-19.5 0,-1.1 -1.2,-1.1 -2.2,-1 v -0.9 c 2.8,-0.3 4.5,-0.5 7.3,-1.1 l -5.1,18.4 c -0.2,0.8 -0.8,2.8 -0.8,3.5 0,0.5 0.5,0.5 0.5,0.5 0.8,0 2,-1.8 2.7,-2.8 l 0.9,0.4"
       id="path60" /><path
       class="st1"
       d="m 361.4,349.6 c 1,0 1,0.9 1,1.2 0,1.8 -0.9,5.1 -5.5,6.4 0.5,-2.6 2.3,-7.6 4.5,-7.6 m 1.4,10.1 c -0.9,1.3 -2.1,3.2 -4,3.2 -0.7,0 -2.3,-0.1 -2.3,-2.9 0,-0.7 0.1,-1.1 0.2,-1.7 6.7,-1 9,-4.7 9,-6.7 0,-2.5 -2.4,-3.2 -3.6,-3.2 -5.7,0 -10.1,6.5 -10.1,11.3 0,3.9 2.9,5.4 5.2,5.4 3.8,0 5.6,-3.1 6.7,-4.8 z"
       id="path62" /><path
       class="st1"
       d="m 365.5,370.2 c 0.7,-0.3 4.1,-2.1 4.1,-4.1 0,-1.5 -2.4,-1.3 -2.4,-3.5 0,-1.5 1,-2.6 2.4,-2.6 0.9,0 3,0.6 3,3.4 0,4.7 -6.1,7.6 -6.7,7.7 l -0.4,-0.9"
       id="path64" /><path
       class="st1"
       d="m 396.2,349.7 h 3.2 c 0.9,-3 2.7,-8.8 7,-8.8 2.5,0 3.1,1.6 3.1,2.3 0,0.7 -0.6,1.4 -1.4,1.4 -1.1,0 -1.3,-0.9 -1.3,-1.3 0,-0.8 0.3,-0.8 0.3,-1.2 0,-0.3 -0.3,-0.4 -0.8,-0.4 -2.9,0 -3.9,6.2 -4.2,8 h 3.8 l -0.2,1.1 h -3.8 l -2.5,11.2 c -1,4.3 -2.9,9.9 -7,9.9 -1.1,0 -2.5,-0.5 -2.7,-2.1 0,-0.1 0,-1.4 1.3,-1.5 0.5,0 1.4,0.4 1.4,1.3 0,0.6 -0.3,0.6 -0.3,1 0,0.3 0.2,0.6 0.7,0.6 2.2,0 3.1,-4.3 3.4,-5.7 l 3.1,-14.8 H 396 l 0.2,-1"
       id="path66" /><path
       class="st1"
       d="m 415.8,349.9 c 1.7,0 2.4,1.6 2.4,3.4 0,3.8 -2.8,11 -6.7,11 -1.7,0 -2.8,-1.3 -2.8,-3.3 0,-4.1 3.2,-11.1 7.1,-11.1 m 0.2,-0.7 c -5.1,0 -10.3,5.6 -10.3,10.8 0,2.9 1.6,5.1 5.3,5.1 5.3,0 10.1,-6.4 10.1,-10.7 0,-2.3 -1,-5.2 -5.1,-5.2"
       id="path68" /><path
       class="st1"
       d="m 424.2,364.7 2.8,-10.3 c 0.4,-1.3 0.6,-2.5 0.6,-2.8 0,-0.5 -0.2,-1 -1.2,-1 -0.4,0 -0.8,0.1 -1.2,0.2 v -0.6 c 1.8,-0.3 3.8,-0.7 5.4,-1 l 0.1,0.1 -1.7,7 0.1,0.1 0.3,-0.7 c 1.2,-2.3 3.8,-6.4 6,-6.4 0.8,0 1.7,0.5 1.7,1.7 0,1.8 -1.2,1.8 -1.6,1.8 -1.5,0 -1,-1.3 -1.8,-1.3 -1.1,0 -3.2,3.9 -3.5,4.4 -1.3,2.5 -1.8,4.1 -3.2,8.8 h -2.8"
       id="path70" /><path
       class="st1"
       d="m 455.7,350.8 h -2.9 l -3.1,11.7 v 0.3 c 0,0.3 0.2,0.6 0.6,0.6 0.7,0 1.9,-1.6 2.8,-2.8 l 0.5,0.2 c -1.8,2.7 -3.1,4.2 -5,4.2 -0.7,0 -1.7,-0.4 -1.7,-1.4 0,-0.5 0.7,-2.7 0.8,-3.2 l 2.5,-9.7 h -2.6 c 0,-0.2 0,-0.4 0.1,-0.6 0.2,-0.3 1.2,-0.6 1.8,-0.9 1.2,-0.6 2.8,-2.2 3.8,-3.4 0.1,-0.2 0.3,-0.5 0.6,-0.4 0.2,-0.1 0.3,0.3 0.2,0.5 l -1,3.6 h 2.8 l -0.2,1.3"
       id="path72" /><path
       class="st1"
       d="m 472.3,361 c -1.3,1.8 -2.8,4 -5.1,4 -1.1,0 -1.6,-0.7 -1.6,-1.6 0,-0.9 2.9,-11 2.9,-11.4 0,-0.6 -0.5,-0.9 -1,-0.9 -1.7,0 -4.7,4 -5.4,4.9 -1.6,2.4 -2.1,4.3 -3.2,8.7 h -2.6 l 4.6,-17.6 c 0.4,-1.5 0.9,-3.5 0.9,-4 0,-0.4 -0.3,-0.9 -1.4,-0.9 h -0.9 v -0.6 c 1.8,-0.2 3.7,-0.5 5.5,-0.9 l 0.2,0.2 -4.1,15.4 0.1,0.1 c 1.1,-1.8 4.7,-7.2 7.8,-7.2 0.8,0 2.4,0.2 2.4,2.5 0,1.2 -2.8,10.2 -2.8,11 0,0.4 0.3,0.7 0.6,0.7 0.7,0 1.5,-1.1 2.9,-2.8 l 0.2,0.4"
       id="path74" /><path
       class="st1"
       d="m 478.7,355.9 c 1.3,-3.1 3.7,-5.8 5.5,-5.8 0.9,0 1.2,0.7 1.2,1.4 0,0.3 -0.2,4.5 -7.4,6 l 0.7,-1.6 m 7.2,5 c -1.7,1.4 -3.2,2.6 -5.1,2.6 -1.5,0 -3.3,-0.8 -3.3,-3.2 0,-0.7 0.2,-1.4 0.4,-2.2 l 1,-0.1 c 5.7,-0.8 8.9,-3.7 8.9,-6.4 0,-1.5 -1.1,-2.4 -2.9,-2.4 -4.9,0 -10.4,5.9 -10.4,10.9 0,2.2 1.1,4.9 4.8,4.9 3.5,0 6.7,-3.2 7.1,-3.8 z"
       id="path76" /><path
       class="st1"
       d="m 520.2,348.9 -1.1,-0.2 c 0.1,-0.4 0.1,-0.8 0.1,-1.2 0,-3.4 -1.6,-5.6 -4.6,-5.6 -5.6,0 -9.7,9.1 -9.7,15.3 0,6.3 4.5,6.3 5,6.3 2.8,0 5,-0.9 7.5,-4.1 l 1,0.8 c -1.8,2.7 -5,5.2 -9.5,5.2 -4.5,0 -9.5,-2.7 -9.5,-9.1 0,-7.8 5.8,-15.6 14.3,-15.6 3,0 4.9,1 5.8,1 0.8,0 1.1,-0.4 1.4,-1 h 1 l -1.7,8.2"
       id="path78" /><path
       class="st1"
       d="m 531.6,349.5 c 0.9,0 1.7,0.5 1.7,2.2 0,2.6 -2,12.4 -5.4,12.4 -1.8,0 -1.8,-1.8 -1.8,-2.5 -0.1,-2.2 1.7,-12.1 5.5,-12.1 m 0.3,-1 c -5.5,0 -10,6 -10,11.5 0,3.4 2.7,5.2 5.6,5.2 5.6,0 9.9,-6 9.9,-11.3 0,-4.7 -4.2,-5.4 -5.5,-5.4"
       id="path80" /><path
       class="st1"
       d="m 556.9,360.5 c -0.7,1.2 -2.6,4.5 -5.5,4.5 -0.5,0 -2.3,0 -2.3,-2 0,-1.5 0.4,-2.7 0.8,-3.8 h -0.1 c -2.7,3.7 -4.1,5.8 -6.8,5.8 -2.7,0 -2.7,-1.9 -2.7,-2.7 0,-2.4 2.6,-8.8 2.6,-10.8 0,-0.9 -0.8,-0.9 -2,-1 v -1 c 3.1,-0.1 6.8,-0.9 7.3,-1 l -3.3,10.8 c -0.4,1.3 -0.5,1.7 -0.5,2.4 0,0.7 0.3,0.8 0.8,0.8 1.4,0 3.5,-3.3 4,-4.2 1.6,-2.9 2.4,-5.6 3.5,-9.4 h 4.1 c -0.7,2.5 -3.6,11.9 -3.6,13 0,0.6 0.4,0.7 0.5,0.7 0.8,0 2.2,-2.1 2.5,-2.6 l 0.7,0.5"
       id="path82" /><path
       class="st1"
       d="m 576.7,360.4 c -1.1,1.9 -2.8,4.6 -5.5,4.6 -0.6,0 -2.4,0 -2.4,-2.3 0,-2.5 3.1,-10.2 3.1,-11 0,-0.4 -0.4,-0.8 -0.9,-0.8 -0.9,0 -4.4,1.7 -7.5,13.7 h -4.2 c 1.8,-6.7 3.6,-12.5 3.6,-13.4 0,-0.9 -0.9,-0.9 -1.9,-0.9 v -1 c 0.8,0 4.2,-0.3 7,-0.9 l -2.1,6.5 0.1,0.1 c 2.5,-3.7 4.4,-6.6 7.4,-6.6 0.8,0 2.6,0.1 2.6,2.8 0,2.3 -3,9.7 -3,10.8 0,0.3 0.2,0.6 0.5,0.6 0.7,0 1.5,-1.3 2.4,-2.7 l 0.8,0.5"
       id="path84" /><path
       class="st1"
       d="m 589.1,350.4 h -2.9 c -1.2,4.3 -3,10.4 -3,11.6 0,0.4 0.5,0.5 0.5,0.5 0.9,0 2.2,-2.1 2.7,-2.8 l 0.8,0.5 c -1.3,2 -3,4.8 -5.7,4.8 -2.5,0 -2.5,-2.1 -2.5,-2.3 0,-1.4 1.7,-6.7 3.2,-12.3 h -1.8 v -1.2 c 1.4,-0.5 4,-1.6 6.4,-5.3 h 1.2 l -1.4,5.1 h 2.5 v 1.4"
       id="path86" /><path
       class="st1"
       d="m 590.2,349.5 c 3.6,-0.3 4.6,-0.4 7,-1 l -2,6.3 0.2,0.1 c 1,-2.1 3.1,-6.3 5.4,-6.3 0.1,0 2,0 2,2.3 0,1.6 -1,2.6 -2.1,2.6 -1.2,0 -1.6,-1.3 -2.1,-1.3 -1,0 -2.8,3.5 -3.6,5.4 -0.9,2.4 -1.3,4 -2.4,7.3 h -4.2 c 1.9,-6.3 3.6,-12.2 3.6,-13.3 0,-0.9 -0.6,-0.9 -1.9,-0.9 v -1.2"
       id="path88" /><path
       class="st1"
       d="m 603.7,349.3 c 2,-0.2 3.9,-0.5 5.2,-0.8 0.7,1.7 1.8,6.8 2.3,9.7 l 0.4,2.5 h 0.1 c 1.5,-3 2.9,-5.8 2.9,-7 0,-1.6 -1.9,-1 -1.9,-3.3 0,-0.9 0.8,-2 1.9,-2 1.1,0 2.2,1 2.2,2.2 0,4.1 -4.5,11.4 -4.8,11.9 -3.6,5.9 -6.6,9.3 -10.1,9.3 -1.3,0 -2.1,-1.2 -2.1,-2.1 0,-0.6 0.5,-1.9 1.9,-1.9 0.5,0 1.5,0.4 1.8,0.6 0.2,0.2 1,0.6 1.4,0.6 0.9,0 3.2,-2.2 3.2,-4.2 0,-1.7 -1.3,-8 -1.6,-9.3 -1.2,-5.3 -1.5,-5.3 -2.9,-5.3 v -0.9"
       id="path90" /></g></g>
<metadata
   id="metadata10168"><rdf:RDF><cc:Work
       rdf:about=""><dc:title>Bashundhara Group</dc:title></cc:Work></rdf:RDF></metadata></svg>
