<svg xmlns="http://www.w3.org/2000/svg" height="800" width="1200" xml:space="preserve" y="0" x="0" id="Layer_1" version="1.1" viewBox="-29.999565 -12.785 259.99623 76.71"><style id="style3185" type="text/css">.st0{fill:#21438e}</style><path id="path3187" d="M153.2954 35.9v7.28l-24.37.23v-7.37c4.74-.14 5.73-2.21 5.73-5.25 0-10.41.54-19.35-2.57-20.83-5.06-2.49-10.47-.64-11.74 6.36v13.97c0 4.97 1.4 5.53 4.88 5.62v7.28l-22.88.23v-7.37c4.11-.14 5.01-2.21 5.55-5.76V14.34c-.4-3.69-1.81-5.53-5.69-5.81-6.55.5-7.67 3.68-7.58 9.07v12.68c.14 4.97 1.8 5.62 5.01 5.76v7.14h-24.79v-7.14c3.74.28 6.41-.14 6.41-4.06V12.49c0-4.1-2.67-3.69-6.14-3.69l.22-7.79h19.18v4.76c4.47-6.08 15.8-8.16 23.6-1.06 1.94 3.41 1.54 1.98 4.24-.14 7.08-5.67 16.52-5.81 22.07 0 3.2 3.55 2.3 7.79 2.58 11.75v14.33c.24 5.16 3.99 5.25 6.29 5.25" class="st0"/><path id="path3189" d="M37.0155 7.44c-5.65.27-6.73.98-6.93 4.16l-.01 24.38c.24 12.06-8.44 15.16-15.79 15.16-6.78-.14-11.43-3.09-13.93-9.3-.97-5.22-.2-10.84 5.41-11.93 5.81-1.23 10.05 9.39 3.47 12.43.32 2.68 7.02 3.9 7.23-1.81V10.75c0-4.99-4.77-3.68-7.55-3.81V0h28.1" class="st0"/><path id="path3191" d="M55.6855.23c-28.42.27-30.49 42.78-1.21 43.15 32.34 1.51 30.99-43.15 1.21-43.15zm1.85 36.23c-13.3.28-13.52-27.91-.72-28.32 12.04.41 11.05 27.96.72 28.32z" class="st0"/><path id="path3193" d="M172.4255 24.95c-3.38 1.29-6.55 3.28-5.77 6.71.55 2.83 3.15 4.12 5.76 3.84 2.83-.28 5.62-2.45 5.76-6.62v-5.74c-1.42.42-3.6.98-5.75 1.81m-.01-6.16c1.23-.32 2.5-.65 3.74-1.11 2.51-.79 3.16-3.7 2.01-7.03-1.65-2.73-3.42-3.61-5.75-3.7-1.88-.1-4.17.32-7 .64 5.34 1.95 4.24 9.81-2.65 10.69-6.12.14-7.27-3.79-7.27-7.63.5-7.5 7.77-9.77 14.39-10.42h2.52c5.44.05 14.44.69 16.9 5.98 1.24 3.19 1.74 7.5 1.74 11.48V34.5c.28 2.04 4.02 1.9 4.02-.51v-7.04h4.84c.05 1.39.09 2.69.09 3.89.05 6.63-1 10.93-8.68 12.41-5.03.51-8.91-.51-12.52-4.96-2.43 1.76-4.43 3.1-6.4 3.94-2.97 1.29-5.85 1.57-10.15.65-4.71-1.02-7.54-5.14-8.09-9.54v-3.1c.41-3.33 2.2-6.43 5.58-8.1 4.09-2.01 8.39-2.38 12.68-3.35z" class="st0"/></svg>