<svg xmlns="http://www.w3.org/2000/svg" viewBox="0 0 87.38 107.86"><title>Kelme logo</title><polygon points="9.04 99.59 14.49 107.77 10.2 107.79 6.33 101.99 3.9 104.15 3.93 107.84 0.24 107.86 0.15 94.92 3.84 94.89 3.87 100.06 4.05 100.06 9.64 94.85 14.4 94.82 9.04 99.59"/><polygon points="31.21 94.7 31.23 97.61 22.59 97.66 22.61 99.71 28.21 99.66 28.24 102.37 22.62 102.42 22.64 104.7 31.28 104.65 31.3 107.65 18.97 107.73 18.88 94.79 31.21 94.7"/><polygon points="49.54 104.52 49.56 107.53 36.66 107.61 36.57 94.67 40.26 94.64 40.33 104.58 49.54 104.52"/><polygon points="87.14 94.31 87.16 97.22 78.52 97.28 78.53 99.32 84.14 99.29 84.16 101.99 78.55 102.03 78.57 104.32 87.2 104.26 87.23 107.26 74.9 107.35 74.81 94.4 87.14 94.31"/><polygon points="61.58 107.74 57.22 100.18 57.27 107.47 53.74 107.49 53.66 94.55 57.18 94.52 61.54 101.51 65.78 94.46 69.32 94.44 69.41 107.39 65.87 107.41 65.83 100.13 61.58 107.74"/><path d="M536.52,521.56a12.13,12.13,0,0,1-17.46,11,15,15,0,0,0-13.39.09,12,12,0,0,1-5.41,1.32,12.13,12.13,0,0,1-12.2-12v-.16a14.22,14.22,0,0,1,.74-4.55,22.19,22.19,0,0,1,1.88-4.25,37.18,37.18,0,0,1,2.35-3.59,56.5,56.5,0,0,1,4.5-5.4c2-2.17,4.05-4.25,6.23-6.24a25.1,25.1,0,0,1,3.47-2.51,10.48,10.48,0,0,1,9.75-.06,24,24,0,0,1,3.5,2.46q3.31,2.92,6.32,6.16a56.39,56.39,0,0,1,4.57,5.32,37.83,37.83,0,0,1,2.39,3.56,22,22,0,0,1,2,4.22,14.25,14.25,0,0,1,.79,4.55Z" transform="translate(-468.31 -458.07)"/><path d="M542.6,483.26a19.8,19.8,0,0,0-6.87,3,11.82,11.82,0,0,0-2.82,2.62,9.34,9.34,0,0,0-2,4.95,8.18,8.18,0,0,0,.61,4,7.15,7.15,0,0,0,1.78,2.55,7,7,0,0,0,2.57,1.73,8.25,8.25,0,0,0,4,.56,9.35,9.35,0,0,0,4.91-2,11.9,11.9,0,0,0,2.58-2.85,19.82,19.82,0,0,0,3-6.91,15,15,0,0,0,.31-2.73,8.43,8.43,0,0,0-.35-2.59,3.59,3.59,0,0,0-.89-1.49,3.55,3.55,0,0,0-1.5-.87,8.59,8.59,0,0,0-2.6-.31,14.81,14.81,0,0,0-2.73.36" transform="translate(-468.31 -458.07)"/><path d="M554.61,480.92a7.67,7.67,0,0,0,1.08-3.2,7.55,7.55,0,0,0-3.19,1.12,2.65,2.65,0,0,0-.89.83,1.56,1.56,0,0,0,2.17,2.15,2.64,2.64,0,0,0,.82-.9" transform="translate(-468.31 -458.07)"/><path d="M520.31,469.4a19.57,19.57,0,0,0-4.43,6.07,11.74,11.74,0,0,0-1.12,3.68,9.31,9.31,0,0,0,.77,5.26,8.2,8.2,0,0,0,2.52,3.14,8.48,8.48,0,0,0,5.91,1.54,8.34,8.34,0,0,0,3.73-1.52,9.28,9.28,0,0,0,3.24-4.22,11.61,11.61,0,0,0,.81-3.75,19.43,19.43,0,0,0-.9-7.46,15.18,15.18,0,0,0-1.08-2.52,8.37,8.37,0,0,0-1.61-2.07,3.52,3.52,0,0,0-1.52-.84,3.44,3.44,0,0,0-1.73,0,8.64,8.64,0,0,0-2.42,1,15.39,15.39,0,0,0-2.17,1.67" transform="translate(-468.31 -458.07)"/><path d="M529.55,461.37a7.65,7.65,0,0,0-.67-3.3,7.61,7.61,0,0,0-2.2,2.55,2.79,2.79,0,0,0-.35,1.17,1.55,1.55,0,0,0,2.94.77,2.62,2.62,0,0,0,.27-1.2" transform="translate(-468.31 -458.07)"/><path d="M493.07,472.39a19.77,19.77,0,0,0-.8,7.47,11.64,11.64,0,0,0,.86,3.74,9.33,9.33,0,0,0,3.3,4.17,8.31,8.31,0,0,0,3.75,1.47,8.56,8.56,0,0,0,5.89-1.62,8.25,8.25,0,0,0,2.48-3.18,9.3,9.3,0,0,0,.7-5.27,11.61,11.61,0,0,0-1.17-3.66,19.89,19.89,0,0,0-4.51-6,15,15,0,0,0-2.2-1.63,8.53,8.53,0,0,0-2.43-1,3.53,3.53,0,0,0-3.25.89,8.79,8.79,0,0,0-1.57,2.09,15.69,15.69,0,0,0-1.05,2.54" transform="translate(-468.31 -458.07)"/><path d="M497,460.82a7.55,7.55,0,0,0-2.22-2.53,7.74,7.74,0,0,0-.63,3.32,2.82,2.82,0,0,0,.28,1.19,1.56,1.56,0,0,0,2.94-.81,2.6,2.6,0,0,0-.37-1.17" transform="translate(-468.31 -458.07)"/><path d="M473.83,491.44a19.76,19.76,0,0,0,3,6.86,11.51,11.51,0,0,0,2.63,2.81,9.31,9.31,0,0,0,4.94,2,8.35,8.35,0,0,0,4-.61,8.46,8.46,0,0,0,4.29-4.35,8.19,8.19,0,0,0,.55-4,9.28,9.28,0,0,0-2-4.91,11.84,11.84,0,0,0-2.85-2.59,20,20,0,0,0-6.91-2.95,15,15,0,0,0-2.73-.31,8.51,8.51,0,0,0-2.6.34,3.54,3.54,0,0,0-2.36,2.39,9.16,9.16,0,0,0-.31,2.6,15.11,15.11,0,0,0,.36,2.73" transform="translate(-468.31 -458.07)"/><path d="M471.5,479.42a7.51,7.51,0,0,0-3.19-1.08,7.55,7.55,0,0,0,1.12,3.18,2.61,2.61,0,0,0,.84.89,1.56,1.56,0,0,0,2.14-2.17,2.67,2.67,0,0,0-.9-.82" transform="translate(-468.31 -458.07)"/></svg>