<svg width="536" height="534" viewBox="0 0 536 534" fill="none" xmlns="http://www.w3.org/2000/svg">
<g id="surface1">
<path id="Vector" fill-rule="evenodd" clip-rule="evenodd" d="M0 533.33H535.78V0H0V533.33Z" fill="#8C3493"/>
<path id="Vector_2" fill-rule="evenodd" clip-rule="evenodd" d="M373.337 86.6436L309.715 181.247L314.177 234.365L325.904 197.844L362.175 266.728L412.964 34.3652L243.855 138.93L289.627 174.611L373.337 86.6436Z" fill="white"/>
<path id="Vector_3" d="M293.547 352.199C293.547 352.199 258.943 352.199 256.152 352.199C232.992 354.274 225.457 297.435 253.921 289.959C262.293 289.959 293.547 289.959 293.547 289.959V352.199ZM318.086 252.615C318.086 252.615 264.225 252.615 251.114 252.615C200.043 264.24 194.744 374.609 250.555 389.552H318.086V289.959C340.599 291.071 345.25 332.836 328.689 348.05C332.039 353.862 345.438 375.441 345.438 375.441C380.596 330.349 360.503 256.213 318.086 252.615Z" fill="white"/>
<path id="Vector_4" fill-rule="evenodd" clip-rule="evenodd" d="M458.171 302.407C447.009 302.407 433.616 302.407 433.616 302.407L423.008 338.928C423.008 338.928 451.472 338.928 454.262 338.928C460.547 338.508 460.824 352.199 454.262 353.031C446.173 353.031 400.13 353.031 400.13 353.031V289.959H483.286V252.615C483.286 252.615 471.709 252.615 471.011 252.615C467.379 175.441 405.29 173.16 388.968 215.28C392.179 219.215 407.383 239.344 407.383 239.344C416.734 217.56 442.685 218.597 446.45 252.615H375.574V389.552H455.381C473.519 389.132 481.891 369.217 483.845 352.199C484.958 324.817 473.796 306.557 458.171 302.407Z" fill="white"/>
<path id="Vector_5" fill-rule="evenodd" clip-rule="evenodd" d="M219.299 252.615H186.932C176.606 271.287 158.744 346.807 194.185 403.654C194.185 403.654 209.533 384.151 212.6 380.421C201.72 364.647 183.582 300.333 219.299 252.615Z" fill="white"/>
<path id="Vector_6" fill-rule="evenodd" clip-rule="evenodd" d="M136.907 404.972C136.907 421.635 127.821 435.137 116.615 435.137C105.409 435.137 96.3284 421.635 96.3284 404.972C96.3284 388.309 105.409 374.799 116.615 374.799C127.821 374.799 136.907 388.309 136.907 404.972Z" fill="white"/>
<path id="Vector_7" fill-rule="evenodd" clip-rule="evenodd" d="M136.143 352.199C136.143 352.199 101.538 352.199 98.7479 352.199C75.5877 354.274 68.0522 297.435 96.5166 289.959C104.888 289.959 136.143 289.959 136.143 289.959V352.199ZM93.7261 252.615C42.6606 264.24 37.3564 374.609 93.1668 389.552H93.5378C97.5021 376.461 106.339 367.348 116.615 367.348C126.891 367.348 135.728 376.461 139.687 389.552H160.699C160.699 384.982 160.699 252.615 160.699 252.615C160.699 252.615 106.843 252.615 93.7261 252.615Z" fill="white"/>
<path id="Vector_8" fill-rule="evenodd" clip-rule="evenodd" d="M116.67 203.391C116.67 205.119 115.724 206.527 114.561 206.527H103.88V199.9H114.561C115.724 199.9 116.67 201.308 116.67 203.037V203.391ZM117.733 220.251C125.955 218.177 130.003 193.075 116.609 187.477C115.076 187.477 94.8445 187.477 94.8445 187.477V235.194H103.77V220.251L113.819 235.194H127.777L117.733 220.251Z" fill="white"/>
<path id="Vector_9" fill-rule="evenodd" clip-rule="evenodd" d="M143.319 221.529C139.371 221.529 136.171 216.77 136.171 210.9C136.171 205.03 139.371 200.272 143.319 200.272C147.266 200.272 150.466 205.03 150.466 210.9C150.466 216.77 147.266 221.529 143.319 221.529ZM143.319 186.721C134.338 186.721 127.057 197.547 127.057 210.9C127.057 224.254 134.338 235.08 143.319 235.08C152.299 235.08 159.58 224.254 159.58 210.9C159.58 197.547 152.299 186.721 143.319 186.721Z" fill="white"/>
<path id="Vector_10" fill-rule="evenodd" clip-rule="evenodd" d="M235.572 200.46H250.189V186.439H237.82C228.097 186.439 220.141 197.356 220.141 210.693C220.141 224.03 228.097 234.947 237.82 234.947H250.189V220.927H235.572C233.429 220.927 231.519 219.404 230.29 217.057H250.189V204.329H230.29C231.519 201.983 233.429 200.46 235.572 200.46Z" fill="white"/>
<path id="Vector_11" fill-rule="evenodd" clip-rule="evenodd" d="M177.475 220.927C173.793 220.927 170.781 216.448 170.781 210.973V210.413C170.781 204.939 173.793 200.46 177.475 200.46H191.367V186.439H178.909C169.187 186.439 161.23 197.356 161.23 210.693C161.23 224.03 169.187 234.947 178.909 234.947H191.367V220.927H177.475Z" fill="white"/>
<path id="Vector_12" fill-rule="evenodd" clip-rule="evenodd" d="M284.135 187.363H252.636V199.91H264.17V234.208H272.602V199.91H284.135V187.363Z" fill="white"/>
<path id="Vector_13" d="M209.162 210.605L224.665 187.363H212.118L203.398 200.437V187.363H194.966V234.208H203.398V220.78L212.357 234.208H224.908L209.162 210.605Z" fill="white"/>
<path id="Vector_14" d="M336.003 412.768C334.608 413.18 333.384 414.481 332.327 416.671C331.308 418.754 330.804 420.861 330.804 423.002C330.804 424.286 330.981 425.537 331.341 426.739C331.79 428.279 332.404 429.036 333.179 429.036C333.573 429.036 334.082 428.724 334.708 428.09L335.582 431.572C334.791 432.28 334.021 432.634 333.274 432.634C332.26 432.634 331.286 432.074 330.345 430.955C329.802 430.304 329.282 429.061 328.794 427.225C328.551 426.328 328.429 424.969 328.429 423.166V421.899C328.429 419.058 329.442 415.864 331.469 412.307C331.9 411.575 332.626 410.529 333.639 409.195H336.823V412.645C336.524 412.702 336.247 412.744 336.003 412.768Z" fill="white"/>
<path id="Vector_15" d="M347.453 412.653H341.213C342.979 414.349 343.893 416.572 343.97 419.313C345.094 419.972 346.257 421.273 347.453 423.224V412.653ZM350.105 412.653V432.362H347.453V429.819C347.453 428.938 347.004 427.818 346.108 426.451C345.432 425.414 344.723 424.508 343.976 423.743C343.151 422.895 342.254 422.475 341.279 422.475C340.288 422.475 339.569 423.101 339.12 424.368C339.065 424.508 339.037 424.681 339.037 424.904C339.037 425.43 339.209 425.9 339.558 426.328C339.901 426.756 340.25 426.962 340.61 426.962C340.886 426.962 341.562 426.657 342.63 426.048L343.411 429.629C342.226 430.527 341.246 430.979 340.455 430.979C339.569 430.979 338.766 430.609 338.029 429.876C337.299 429.135 336.761 428.172 336.424 426.97C336.274 426.451 336.197 425.817 336.197 425.052C336.197 422.821 336.822 421.116 338.063 419.939C338.926 419.099 339.851 418.671 340.831 418.671C340.92 418.671 341.008 418.671 341.086 418.671C341.064 417.988 340.82 417.214 340.349 416.35C339.879 415.502 339.419 415.074 338.965 415.074H336.031V412.653H334.851V409.195H351.916V412.653H350.105Z" fill="white"/>
<path id="Vector_16" d="M355.266 412.653V432.362H352.613V412.653H350.659V409.195H357.032V412.653H355.266Z" fill="white"/>
<path id="Vector_17" d="M368.199 416.918C367.707 417.165 367.181 417.445 366.61 417.774C365.78 418.317 364.268 419.305 362.076 420.721L361.572 421.051C363.665 422.137 365.664 423.751 367.574 425.883C367.817 426.155 368.028 426.385 368.199 426.575V416.918ZM368.044 412.653H356.102V409.195H372.634V412.653H370.802V432.362H368.46C368.233 431.35 367.086 429.777 365.016 427.653C364.174 426.789 363.006 425.941 361.522 425.126C359.939 424.245 358.682 423.817 357.74 423.817L357.037 419.89C357.652 419.149 359.363 417.881 362.159 416.086C363.344 415.321 365.304 414.176 368.044 412.653Z" fill="white"/>
<path id="Vector_18" d="M375.962 412.653V432.362H373.315V412.653H371.361V409.195H377.728V412.653H375.962Z" fill="white"/>
<path id="Vector_19" d="M386.017 435.682C384.942 434.233 383.796 432.892 382.578 431.632C381.997 431.039 381.028 430.372 379.677 429.64C378.608 429.063 377.977 428.775 377.789 428.775L377.822 424.165C378.044 424.165 378.387 424.181 378.847 424.222C379.306 424.264 379.649 424.288 379.876 424.288C381.078 424.288 382.052 424.058 382.805 423.597C384.228 422.708 384.942 421.662 384.942 420.452C384.942 419.563 384.671 418.822 384.129 418.229C383.603 417.768 383.066 417.323 382.523 416.895C382.373 416.788 382.218 416.731 382.074 416.731C381.753 416.731 381.405 416.854 381.028 417.093C380.557 417.422 380.347 417.784 380.38 418.188C380.474 419.209 381.2 419.637 382.551 419.48L381.117 422.749C380.535 422.806 379.943 422.535 379.339 421.934C378.249 420.839 377.706 419.505 377.706 417.924C377.706 416.344 378.26 415.117 379.367 414.236C380.269 413.503 381.305 413.133 382.468 413.133C382.971 413.133 383.414 413.265 383.78 413.503C384.145 413.75 384.516 414.022 384.893 414.318C386.692 415.685 387.595 417.751 387.595 420.526C387.595 422.518 387.041 424.124 385.934 425.35C385.086 426.272 383.874 426.939 382.296 427.351C382.767 427.672 383.442 428.232 384.322 429.022C385.828 430.71 387.041 432.225 387.96 433.558L386.017 435.682ZM376.803 412.655V409.198H384.632C384.655 409.058 384.666 408.959 384.666 408.909C384.666 407.098 384.09 405.913 382.944 405.336C382.794 405.279 382.623 405.254 382.434 405.254C382.152 405.254 381.809 405.336 381.393 405.501C380.834 405.723 380.491 405.847 380.38 405.88C379.932 405.987 379.539 406.193 379.201 406.497C378.769 406.942 378.271 407.345 377.706 407.707L376.864 404.785C377.878 403.739 379.206 402.85 380.862 402.109C381.554 401.804 382.213 401.656 382.833 401.656C383.492 401.656 384.228 402.01 385.059 402.727C386.465 403.978 387.196 406.135 387.257 409.198H388.774V412.655H376.803Z" fill="white"/>
<path id="Vector_20" d="M404.631 412.653V432.362H401.984V424.541C401.984 423.858 401.785 423.166 401.392 422.442C400.999 421.726 400.578 421.363 400.13 421.363C399.714 421.363 399.321 421.742 398.945 422.5C398.568 423.265 398.385 424.121 398.385 425.101H395.517C395.517 424.006 395.329 423.068 394.953 422.277C394.571 421.487 394.139 421.083 393.646 421.083C393.231 421.083 392.832 421.306 392.456 421.742C392.079 422.178 391.874 422.689 391.836 423.265L391.752 424.286V424.689C391.752 426.715 392.583 427.727 394.25 427.727C394.515 427.727 394.964 427.645 395.601 427.48L394.67 431.457C394.128 431.556 393.796 431.597 393.685 431.597C392.445 431.597 391.298 430.913 390.246 429.547C389.831 429.028 389.499 428.238 389.233 427.176C388.99 426.221 388.868 425.29 388.868 424.385C388.868 422.253 389.305 420.524 390.191 419.206C391.077 417.881 392.234 417.214 393.663 417.214C394.997 417.214 396.115 418.161 397.018 420.046C397.992 418.161 399.05 417.214 400.174 417.214C400.8 417.214 401.397 417.634 401.984 418.474V412.653H387.655V409.195H406.131V412.653H404.631Z" fill="white"/>
<path id="Vector_21" d="M424.663 416.918C424.176 417.165 423.644 417.445 423.08 417.774C422.249 418.317 420.738 419.305 418.545 420.721L418.036 421.051C420.134 422.137 422.133 423.751 424.043 425.883C424.287 426.155 424.497 426.385 424.663 426.575V416.918ZM424.514 412.653H412.571V409.195H429.104V412.653H427.271V432.362H424.929C424.702 431.35 423.556 429.777 421.485 427.653C420.638 426.789 419.475 425.941 417.986 425.126C416.408 424.245 415.151 423.817 414.21 423.817L413.501 419.89C414.121 419.149 415.832 417.881 418.628 416.086C419.813 415.321 421.773 414.176 424.514 412.653Z" fill="white"/>
<path id="Vector_22" d="M433.549 412.653C432.708 414.374 432.292 415.798 432.292 416.918C432.292 417.436 432.719 419.519 433.577 423.158C434.02 424.994 434.247 426.509 434.247 427.719C434.247 430.016 433.383 431.613 431.656 432.519C431.13 432.823 430.194 433.062 428.843 433.26L429.197 429.851C430.764 429.357 431.551 428.542 431.551 427.39C431.551 426.32 431.224 424.681 430.571 422.458C429.917 420.244 429.596 418.614 429.596 417.576C429.596 416.234 429.973 414.596 430.726 412.653H427.968V409.195H435.36V412.653H433.549Z" fill="white"/>
<path id="Vector_23" d="M439.219 412.653V432.362H436.567V412.653H434.618V409.195H440.985V412.653H439.219Z" fill="white"/>
<path id="Vector_24" d="M445.891 413.97C445.625 413.698 445.359 413.583 445.094 413.641C444.091 413.888 443.593 414.62 443.593 415.847C443.593 416.481 443.759 417.057 444.091 417.593C444.424 418.119 444.795 418.391 445.21 418.391L445.575 418.309C446.334 417.955 446.71 417.271 446.71 416.259C446.71 415.304 446.439 414.538 445.891 413.97ZM448.233 434.692C444.872 430.485 442.597 427.958 441.389 427.11L441.423 421.668C446.04 426.583 449.063 430.502 450.486 433.424V437.475L448.233 434.692ZM445.337 421.989C444.097 421.989 443.1 421.404 442.347 420.243C441.6 419.083 441.223 417.584 441.223 415.757C441.223 414.061 441.605 412.653 442.381 411.517C443.145 410.381 444.102 409.812 445.254 409.812C446.81 409.812 447.934 410.973 448.632 413.295C448.931 414.283 449.086 415.254 449.086 416.209C449.086 417.979 448.759 419.395 448.111 420.433C447.463 421.47 446.539 421.989 445.337 421.989Z" fill="white"/>
<path id="Vector_25" d="M467.158 406.881C464.068 404 461.543 402.551 459.578 402.551C457.258 402.551 455.553 403.646 454.468 405.828C454.091 406.593 453.886 407.721 453.847 409.195H455.708V412.653H453.847V432.362H451.151V412.653H449.385V409.195H451.151C451.206 406.396 451.826 404.123 453.011 402.378C454.191 400.641 455.796 399.571 457.828 399.159C458.033 399.134 458.432 399.068 459.013 398.953H459.572C461.189 398.953 462.795 399.472 464.395 400.509C465.259 401.11 466.676 402.304 468.647 404.107L467.158 406.881Z" fill="white"/>
<path id="Vector_26" d="M462.308 417.206C461.876 417.692 461.217 418.35 460.331 419.165C460.11 419.305 459.849 419.585 459.561 420.005C459.268 420.433 458.991 420.82 458.725 421.174C459.008 421.553 459.456 422.088 460.082 422.771C460.663 423.751 461.405 424.969 462.308 426.41V417.206ZM464.96 412.653V412.777C466.067 412.859 467.224 413.378 468.426 414.333C470.114 415.707 470.962 417.568 470.962 419.923C470.962 421.298 470.679 422.483 470.114 423.479C469.544 424.475 468.808 425.134 467.894 425.447C466.981 425.768 466.205 425.809 465.563 425.595V421.866C465.868 421.923 466.145 421.956 466.41 421.956C467.739 421.956 468.404 421.24 468.404 419.824C468.404 418.128 467.252 417.066 464.96 416.63V432.362H462.623C462.241 431.267 461.87 430.428 461.494 429.827C461.361 429.604 461.023 428.954 460.475 427.859C460.309 427.505 459.999 427.061 459.55 426.509C459.096 425.966 458.786 425.521 458.62 425.167C458.543 425.002 458.332 424.821 457.994 424.632C456.848 424.031 455.918 423.726 455.204 423.726L454.501 419.807C455.088 419.182 456.4 418.004 458.448 416.292C458.598 416.127 459.224 415.584 460.325 414.654C460.719 414.3 461.383 413.723 462.308 412.933V412.653H453.936V409.195H472.135V412.653H464.96Z" fill="white"/>
<path id="Vector_27" d="M476.642 413.97C476.382 413.698 476.116 413.583 475.85 413.641C474.848 413.888 474.35 414.62 474.35 415.847C474.35 416.481 474.516 417.057 474.848 417.593C475.175 418.119 475.551 418.391 475.967 418.391L476.332 418.309C477.091 417.955 477.467 417.271 477.467 416.259C477.467 415.304 477.19 414.538 476.642 413.97ZM478.99 434.692C475.629 430.485 473.348 427.958 472.146 427.11L472.174 421.668C476.797 426.583 479.815 430.502 481.243 433.424V437.475L478.99 434.692ZM476.094 421.989C474.854 421.989 473.857 421.404 473.104 420.243C472.351 419.083 471.975 417.584 471.975 415.757C471.975 414.061 472.362 412.653 473.132 411.517C473.901 410.381 474.859 409.812 476.005 409.812C477.567 409.812 478.691 410.973 479.388 413.295C479.687 414.283 479.837 415.254 479.837 416.209C479.837 417.979 479.516 419.395 478.868 420.433C478.22 421.47 477.29 421.989 476.094 421.989Z" fill="white"/>
<path id="Vector_28" d="M183.045 434.05L187.984 436.528L189.96 434.05L185.022 431.473L183.045 434.05Z" fill="white"/>
<path id="Vector_29" d="M180.409 422.943C180.908 423.157 181.567 421.963 182.059 420.983C182.059 422.07 182.059 423.816 182.059 425.553C182.059 427.298 181.124 428.821 180.409 428.821C179.701 428.821 173.5 428.821 173.5 428.821V422.943C173.5 422.943 179.806 422.943 180.409 422.943ZM184.695 413.664V409.219H145.91V413.664H152.427V423.593C152.427 423.593 157.421 423.593 158.024 423.593C158.024 423.593 159.613 422.836 160.001 421.634C160.001 423.05 160.001 425.009 160.001 425.553C160.001 427.298 159.121 428.821 158.024 428.821C156.928 428.821 150.289 428.821 149.797 428.821C149.298 428.821 148.806 428.492 148.806 425.553C148.806 422.614 148.806 416.299 148.806 416.299H145.91C145.91 416.299 145.91 427.191 145.91 428.171C145.91 429.15 146.325 432.608 148.407 432.608C150.494 432.608 159.126 432.608 159.564 432.608C161.302 432.526 162.537 429.891 162.631 427.677C162.631 422.885 162.631 416.299 162.631 416.299H160.001C159.724 418.044 159.89 419.238 158.683 419.674C157.476 419.674 155.389 419.674 155.389 419.674V413.664H164.94V432.608H168.229V413.664H170.537V432.608C170.537 432.608 180.631 432.608 181.4 432.608C182.17 432.608 184.695 431.653 184.695 427.52C184.695 423.379 184.695 416.299 184.695 416.299H182.059C182.059 417.386 181.949 419.024 180.742 419.024C179.535 419.024 173.5 419.024 173.5 419.024V413.664H184.695Z" fill="white"/>
<path id="Vector_30" d="M188.316 424.245H194.899V419.025H188.316V424.245Z" fill="white"/>
<path id="Vector_31" d="M209.383 429.471C209.383 429.471 203.071 429.471 202.8 429.471C201.815 429.257 201.156 427.52 201.156 425.553C201.156 423.593 201.156 420.325 201.156 420.325H209.383V429.471ZM198.537 409.219V413.664H209.383V416.299H198.537C198.537 416.299 198.537 426.096 198.537 426.862C198.769 430.303 199.954 432.608 202.208 432.608C204.893 432.608 212.019 432.608 212.019 432.608V413.664H214.322V432.608H217.284V409.219H198.537Z" fill="white"/>
<path id="Vector_32" d="M231.508 413.664H244.94V416.299C244.337 416.299 241.375 416.299 240.993 416.299C240.826 418.151 238.794 419.156 238.357 416.299C236.164 416.299 231.508 416.299 231.508 416.299C231.508 416.299 231.508 426.425 231.508 427.52C231.508 428.607 231.619 432.164 233.629 432.608C235.495 432.608 239.016 432.608 239.016 432.608V428.821C239.016 428.821 236.054 428.821 235.395 428.821C234.681 428.492 234.077 427.841 234.077 426.211C234.077 424.244 234.077 420.325 234.077 420.325H237.698V423.593H240.993V420.983C240.771 419.781 244.447 419.888 244.614 420.983C244.614 422.614 244.614 432.608 244.614 432.608H247.576V413.664H249.552V432.608H252.514V409.219H231.508V413.664Z" fill="white"/>
<path id="Vector_33" d="M224.703 417.081C223.441 417.081 222.417 416.389 222.417 415.541C222.417 414.701 223.441 414.01 224.703 414.01C225.966 414.01 226.99 414.701 226.99 415.541C226.99 416.389 225.966 417.081 224.703 417.081ZM226.835 410.527C225.628 410.527 219.837 410.527 219.837 410.527C219.837 410.527 219.837 415.689 219.837 416.669C220.114 418.628 220.817 421.049 223.214 421.238C225.628 421.238 228.812 421.238 228.812 421.238V413.664C228.646 412.38 228.042 410.741 226.835 410.527Z" fill="white"/>
<path id="Vector_34" d="M220.302 423.545V427.398L228.762 432.617V428.534L220.302 423.545Z" fill="white"/>
<path id="Vector_35" d="M295.635 417.081C294.372 417.081 293.348 416.389 293.348 415.541C293.348 414.701 294.372 414.01 295.635 414.01C296.897 414.01 297.921 414.701 297.921 415.541C297.921 416.389 296.897 417.081 295.635 417.081ZM297.766 410.527C296.559 410.527 290.773 410.527 290.773 410.527C290.773 410.527 290.773 415.689 290.773 416.669C291.045 418.628 291.748 421.049 294.145 421.238C296.559 421.238 299.743 421.238 299.743 421.238V413.664C299.577 412.38 298.973 410.741 297.766 410.527Z" fill="white"/>
<path id="Vector_36" d="M291.233 423.545V427.398L299.693 432.617V428.534L291.233 423.545Z" fill="white"/>
<path id="Vector_37" d="M313.098 429.471C313.098 429.471 306.786 429.471 306.515 429.471C305.523 429.257 304.87 427.52 304.87 425.553C304.87 423.593 304.87 420.325 304.87 420.325H313.048L313.092 420.983H313.098V429.471ZM315.733 416.299V413.664H321.187V409.219H302.251V413.664H313.098V416.299H302.251C302.251 416.299 302.251 426.096 302.251 426.862C302.484 430.303 303.669 432.608 305.917 432.608C308.607 432.608 315.733 432.608 315.733 432.608V420.983H318.363C318.801 420.983 318.911 420.654 319.022 421.634C319.022 422.836 319.022 423.593 319.022 423.593C318.856 424.581 318.801 425.232 318.363 425.553C317.926 425.553 317.394 425.553 317.394 425.553V429.471H319.349C320.008 429.364 321.215 428.278 321.325 426.862C321.325 424.688 321.325 416.299 321.325 416.299H315.733Z" fill="white"/>
<path id="Vector_38" d="M272.231 429.471C272.231 429.471 265.919 429.471 265.642 429.471C264.657 429.257 263.998 427.52 263.998 425.553C263.998 423.593 263.998 420.325 263.998 420.325H272.231V429.471ZM261.379 409.219V413.664H272.231V416.299H261.379C261.379 416.299 261.379 426.096 261.379 426.862C261.617 430.303 262.802 432.608 265.05 432.608C267.741 432.608 274.861 432.608 274.861 432.608V413.664H278.294L277.042 417.377V419.996C277.042 419.996 278.908 419.996 279.351 419.996C280.575 420.201 280.996 421.412 280.996 424.565C280.996 426.746 280.658 428.319 279.523 428.492C278.809 428.492 277.369 428.492 277.369 428.492V432.411C277.369 432.411 279.019 432.411 279.678 432.411C280.337 432.411 283.354 432.847 283.631 428.492C283.958 419.666 284.229 417.377 280.005 416.727L280.625 413.664H285.264V432.608H288.227V409.219H261.379Z" fill="white"/>
</g>
</svg>
